<svg width="71" height="18" viewBox="0 0 71 18" fill="none" xmlns="http://www.w3.org/2000/svg">
<path d="M0.180996 13.5925V1.64666H5.09587C6.15393 1.64666 7.0584 1.81731 7.80929 2.15862C8.57155 2.49993 9.15747 2.98915 9.56704 3.62626C9.97661 4.26337 10.1814 5.01994 10.1814 5.89597C10.1814 6.77201 9.97661 7.52858 9.56704 8.16569C9.15747 8.79143 8.57155 9.27495 7.80929 9.61626C7.0584 9.94619 6.15393 10.1112 5.09587 10.1112H1.40971L2.39951 9.10429V13.5925H0.180996ZM7.99701 13.5925L4.97641 9.25788H7.34852L10.3862 13.5925H7.99701ZM2.39951 9.34321L1.40971 8.28515H4.99348C5.9719 8.28515 6.70572 8.07467 7.19493 7.65372C7.69552 7.23277 7.94581 6.64686 7.94581 5.89597C7.94581 5.13371 7.69552 4.5478 7.19493 4.13822C6.70572 3.72865 5.9719 3.52387 4.99348 3.52387H1.40971L2.39951 2.43167V9.34321ZM16.7422 13.712C15.7296 13.712 14.8422 13.5129 14.0799 13.1147C13.3291 12.7051 12.7431 12.1476 12.3222 11.4423C11.9126 10.7369 11.7078 9.93482 11.7078 9.03603C11.7078 8.12587 11.9069 7.32379 12.3051 6.62979C12.7147 5.92442 13.2722 5.37263 13.9775 4.97444C14.6943 4.57624 15.5078 4.37714 16.4179 4.37714C17.3053 4.37714 18.096 4.57055 18.79 4.95737C19.484 5.34419 20.0301 5.89029 20.4283 6.59566C20.8265 7.30104 21.0256 8.13156 21.0256 9.08723C21.0256 9.17825 21.0199 9.28064 21.0085 9.39441C21.0085 9.50818 21.0029 9.61626 20.9915 9.71865H13.3973V8.30221H19.8652L19.0289 8.74592C19.0403 8.22258 18.9322 7.76181 18.7047 7.36361C18.4772 6.96541 18.1643 6.65255 17.7661 6.42501C17.3793 6.19747 16.9299 6.0837 16.4179 6.0837C15.8946 6.0837 15.4338 6.19747 15.0356 6.42501C14.6488 6.65255 14.3416 6.9711 14.1141 7.38068C13.8979 7.77887 13.7898 8.25102 13.7898 8.79711V9.13843C13.7898 9.68452 13.915 10.168 14.1653 10.589C14.4156 11.0099 14.7682 11.3342 15.2233 11.5617C15.6784 11.7893 16.2018 11.903 16.7934 11.903C17.3053 11.903 17.7661 11.8234 18.1757 11.6641C18.5852 11.5048 18.9493 11.2546 19.2679 10.9132L20.4112 12.2273C20.0017 12.7051 19.484 13.0749 18.8583 13.3365C18.2439 13.5868 17.5386 13.712 16.7422 13.712ZM28.2455 4.37714C28.9737 4.37714 29.6221 4.51935 30.191 4.80378C30.7712 5.08821 31.2263 5.52622 31.5562 6.11783C31.8862 6.69805 32.0511 7.44894 32.0511 8.37048V13.5925H29.918V8.64353C29.918 7.83576 29.7245 7.23277 29.3377 6.83458C28.9623 6.43638 28.4333 6.23729 27.7506 6.23729C27.25 6.23729 26.8063 6.33968 26.4195 6.54446C26.0327 6.74925 25.7312 7.05643 25.515 7.466C25.3103 7.8642 25.2079 8.37048 25.2079 8.98484V13.5925H23.0747V4.47954H25.1055V6.93697L24.7471 6.18609C25.0657 5.60586 25.5264 5.16216 26.1294 4.85498C26.7438 4.53642 27.4491 4.37714 28.2455 4.37714ZM38.1874 13.712C37.1862 13.712 36.4126 13.456 35.8665 12.944C35.3204 12.4207 35.0473 11.6527 35.0473 10.6402V2.4658H37.1805V10.589C37.1805 11.0213 37.2886 11.3569 37.5048 11.5959C37.7323 11.8348 38.0452 11.9542 38.4434 11.9542C38.9212 11.9542 39.3194 11.8291 39.638 11.5788L40.2353 13.0976C39.985 13.3024 39.6778 13.456 39.3137 13.5584C38.9497 13.6608 38.5742 13.712 38.1874 13.712ZM33.5456 6.25435V4.5478H39.6209V6.25435H33.5456ZM47.6046 13.5925V11.7495L47.4852 11.3569V8.13156C47.4852 7.50582 47.2975 7.0223 46.922 6.68099C46.5466 6.3283 45.9777 6.15196 45.2155 6.15196C44.7035 6.15196 44.1972 6.2316 43.6966 6.39087C43.2074 6.55015 42.7922 6.77201 42.4508 7.05643L41.6146 5.50347C42.1038 5.12803 42.6841 4.84929 43.3553 4.66726C44.0379 4.47385 44.7433 4.37714 45.4714 4.37714C46.7912 4.37714 47.8094 4.6957 48.5262 5.33281C49.2543 5.95855 49.6184 6.93128 49.6184 8.25102V13.5925H47.6046ZM44.7376 13.712C44.055 13.712 43.4577 13.5982 42.9457 13.3707C42.4338 13.1318 42.0356 12.8075 41.7512 12.3979C41.4781 11.977 41.3416 11.5048 41.3416 10.9815C41.3416 10.4695 41.461 10.0088 41.7 9.59919C41.9503 9.18962 42.3541 8.86538 42.9116 8.62646C43.4691 8.38754 44.2086 8.26808 45.1301 8.26808H47.7753V9.68452H45.2837C44.5556 9.68452 44.0664 9.80398 43.8161 10.0429C43.5658 10.2704 43.4406 10.5549 43.4406 10.8962C43.4406 11.283 43.5942 11.5902 43.9014 11.8177C44.2086 12.0453 44.6352 12.159 45.1813 12.159C45.7047 12.159 46.1711 12.0396 46.5807 11.8006C47.0017 11.5617 47.3031 11.209 47.4852 10.7426L47.8436 12.0225C47.6388 12.5572 47.269 12.9725 46.7343 13.2683C46.211 13.5641 45.5454 13.712 44.7376 13.712ZM51.4174 17.0227C51.0193 17.0227 50.6438 16.9772 50.2911 16.8862C49.9271 16.8065 49.6199 16.6757 49.3696 16.4937L49.9839 14.9066C50.3139 15.1455 50.7291 15.265 51.2297 15.265C51.6165 15.265 51.918 15.1398 52.1342 14.8895C52.3504 14.6506 52.4584 14.2922 52.4584 13.8144V4.47954H54.5916V13.7632C54.5916 14.7644 54.3129 15.5551 53.7554 16.1353C53.2093 16.7269 52.43 17.0227 51.4174 17.0227ZM53.5165 2.97777C53.1183 2.97777 52.7884 2.85262 52.5267 2.60233C52.2764 2.35203 52.1513 2.05054 52.1513 1.69785C52.1513 1.33379 52.2764 1.0323 52.5267 0.79338C52.7884 0.543086 53.1183 0.417939 53.5165 0.417939C53.9147 0.417939 54.239 0.537398 54.4892 0.776315C54.7509 1.00386 54.8818 1.29397 54.8818 1.64666C54.8818 2.0221 54.7566 2.34066 54.5063 2.60233C54.256 2.85262 53.9261 2.97777 53.5165 2.97777ZM61.0804 13.7632C60.1475 13.7632 59.2544 13.6323 58.4011 13.3707C57.5478 13.0976 56.8709 12.7506 56.3703 12.3297L57.1383 10.6061C57.6161 10.9815 58.2077 11.2944 58.9131 11.5447C59.6185 11.795 60.3409 11.9201 61.0804 11.9201C61.7061 11.9201 62.2124 11.8518 62.5992 11.7153C62.9861 11.5788 63.2705 11.3968 63.4525 11.1692C63.6345 10.9303 63.7256 10.6629 63.7256 10.3671C63.7256 10.0031 63.5947 9.71297 63.3331 9.4968C63.0714 9.26926 62.7301 9.09292 62.3091 8.96777C61.8996 8.83125 61.4388 8.7061 60.9268 8.59233C60.4262 8.47856 59.9199 8.34772 59.408 8.19982C58.9074 8.04054 58.4466 7.84145 58.0257 7.60253C57.6161 7.35223 57.2805 7.0223 57.0188 6.61273C56.7571 6.20315 56.6263 5.67981 56.6263 5.0427C56.6263 4.39421 56.797 3.8026 57.1383 3.26788C57.491 2.72179 58.02 2.28946 58.7254 1.9709C59.4421 1.64097 60.3466 1.476 61.4388 1.476C62.1555 1.476 62.8666 1.56702 63.572 1.74905C64.2773 1.93108 64.8917 2.19275 65.4151 2.53407L64.7154 4.25768C64.1806 3.93913 63.6289 3.7059 63.06 3.558C62.4912 3.39872 61.9451 3.31908 61.4217 3.31908C60.8074 3.31908 60.3068 3.39303 59.9199 3.54093C59.5445 3.68883 59.2658 3.88224 59.0837 4.12116C58.9131 4.36008 58.8278 4.63313 58.8278 4.9403C58.8278 5.30437 58.9529 5.60017 59.2032 5.82771C59.4649 6.04388 59.8005 6.21453 60.2101 6.33968C60.631 6.46483 61.0975 6.58997 61.6094 6.71512C62.1214 6.82889 62.6277 6.95973 63.1283 7.10763C63.6402 7.25553 64.101 7.44894 64.5106 7.68786C64.9315 7.92677 65.2671 8.25102 65.5174 8.66059C65.7791 9.07016 65.91 9.58782 65.91 10.2136C65.91 10.8507 65.7336 11.4423 65.3809 11.9884C65.0396 12.5231 64.5106 12.9554 63.7938 13.2853C63.0771 13.6039 62.1726 13.7632 61.0804 13.7632ZM67.905 13.5925V4.47954H70.0382V13.5925H67.905ZM68.9801 2.97777C68.582 2.97777 68.252 2.85262 67.9903 2.60233C67.7401 2.35203 67.6149 2.05054 67.6149 1.69785C67.6149 1.33379 67.7401 1.0323 67.9903 0.79338C68.252 0.543086 68.582 0.417939 68.9801 0.417939C69.3783 0.417939 69.7026 0.537398 69.9529 0.776315C70.2146 1.00386 70.3454 1.29397 70.3454 1.64666C70.3454 2.0221 70.2202 2.34066 69.9699 2.60233C69.7197 2.85262 69.3897 2.97777 68.9801 2.97777Z" fill="#407BFF"/>
</svg>
