<svg width="86" height="40" viewBox="0 0 86 40" fill="none" xmlns="http://www.w3.org/2000/svg">
<g clip-path="url(#clip0_34_28)">
<path d="M79.4024 15.485L64.1082 13.635C63.8607 13.635 63.7382 13.5117 63.6149 13.3883L54.8574 3.15082C54.1293 2.29266 53.2217 1.60485 52.1986 1.136C51.1755 0.667147 50.0619 0.428696 48.9365 0.437491H15.8815C14.6856 0.442167 13.5068 0.722832 12.4371 1.25763C11.3673 1.79243 10.4355 2.56693 9.71404 3.52082L1.94321 13.8817C1.2135 14.8375 0.822944 16.0092 0.833205 17.2117V26.8333C0.833205 30.0408 3.42404 32.5075 6.50737 32.5075H10.2074C11.3174 36.33 14.8949 39.1667 19.0882 39.1667C23.2815 39.1667 26.859 36.33 27.969 32.5067H59.6665C60.7782 36.33 64.3549 39.1667 68.5482 39.1667C72.7415 39.1667 76.319 36.33 77.429 32.5067H81.9924C84.089 32.5067 85.6932 30.78 85.6932 28.8067V23.0083C85.939 19.185 83.1024 15.9783 79.4024 15.485ZM9.83737 29.7933C9.83737 30.41 9.83737 30.9033 9.96154 31.52H6.50737C3.91737 31.52 1.94404 29.5467 1.8207 26.9567H10.3315C9.96154 27.82 9.83737 28.8067 9.83737 29.7933ZM27.3524 31.52C27.3524 31.6433 27.229 31.89 27.229 32.0133C27.229 32.1367 27.1049 32.3833 27.1049 32.5075C26.5578 34.1663 25.499 35.609 24.0807 36.6283C22.6623 37.6476 20.9573 38.1912 19.2107 38.1808C17.4641 38.1909 15.7593 37.6472 14.341 36.6277C12.9228 35.6082 11.8643 34.1655 11.3174 32.5067C11.3174 32.3833 11.1932 32.1367 11.1932 32.0133C11.1932 31.89 11.0699 31.6433 11.0699 31.52C10.9465 30.9033 10.9465 30.41 10.9465 29.7933C10.9465 28.8067 11.069 27.82 11.4399 26.9567C11.4399 26.8325 11.5632 26.5867 11.5632 26.4625C11.6874 26.3392 11.6874 26.0925 11.8099 25.9692C13.1665 23.2558 16.0032 21.4058 19.334 21.4058C22.5407 21.4058 25.3774 23.2558 26.8582 25.9692C26.9815 26.0925 26.9815 26.3392 27.1049 26.4625C27.2274 26.5867 27.2282 26.8325 27.2282 26.9567C27.5982 27.82 27.7215 28.8067 27.7215 29.7933C27.4749 30.41 27.4749 30.9033 27.3515 31.52H27.3524ZM59.4215 29.7933C59.4215 30.41 59.4215 30.9033 59.544 31.52H28.339C28.4624 30.9033 28.4624 30.41 28.4624 29.7933C28.4624 28.8067 28.339 27.9433 28.0924 26.9567H59.9149C59.5449 27.82 59.4215 28.8067 59.4215 29.7933ZM76.9357 31.52C76.9357 31.6433 76.8124 31.89 76.8124 32.0133C76.8124 32.1367 76.689 32.3833 76.689 32.5075C76.142 34.1663 75.0832 35.609 73.6648 36.6283C72.2465 37.6476 70.5415 38.1912 68.7949 38.1808C67.0482 38.1912 65.3432 37.6476 63.925 36.628C62.5067 35.6085 61.4482 34.1656 60.9015 32.5067C60.9015 32.3833 60.7782 32.1367 60.7782 32.0133C60.7782 31.89 60.654 31.6433 60.654 31.52C60.5315 30.9033 60.5315 30.41 60.5315 29.7933C60.5315 28.8067 60.654 27.82 61.024 26.9567C61.024 26.8325 61.1482 26.5867 61.1482 26.4625C61.2715 26.3392 61.2707 26.0925 61.394 25.9692C62.7507 23.2558 65.5882 21.4058 68.919 21.4058C72.1249 21.4058 74.9624 23.2558 76.4424 25.9692C76.5657 26.0925 76.5657 26.3392 76.689 26.4625C76.8115 26.5867 76.8124 26.8325 76.8124 26.9567C77.1824 27.82 77.3057 28.8067 77.3057 29.7933C77.059 30.41 77.059 30.9033 76.9357 31.52ZM84.9532 28.6833C84.9532 30.1633 83.7199 31.3958 82.2399 31.3958H77.9232C78.0457 30.7792 78.0457 30.2858 78.0457 29.6692C78.0457 28.6833 77.9224 27.8192 77.6749 26.8325H85.0765V28.6825L84.9532 28.6833ZM84.9532 25.97H77.1824C75.7024 22.6392 72.4957 20.42 68.6715 20.42C64.8482 20.42 61.6407 22.7625 60.1615 25.97H27.599C26.1182 22.6392 22.9115 20.42 19.0882 20.42C15.2649 20.42 12.0582 22.7625 10.5774 25.97H1.69737V22.7625H4.41071C4.65654 22.7625 4.90404 22.5167 4.90404 22.2692C4.90404 22.0217 4.65737 21.7758 4.41071 21.7758H1.69737V18.6925H4.41071C4.65654 18.6925 4.90404 18.4458 4.90404 18.1983C4.90404 17.9517 4.65737 17.705 4.41071 17.705H1.69737V17.0883C1.69737 16.1017 2.06737 15.1142 2.5607 14.375L10.3315 4.01416C11.5649 2.28749 13.5382 1.30082 15.7582 1.30082H48.814C50.7874 1.30082 52.6374 2.16499 53.994 3.64416L62.7499 13.8817C62.9974 14.2517 63.4899 14.4983 63.8599 14.4983L79.1549 16.3483C81.2515 16.595 82.979 17.8283 83.9657 19.555H79.649C79.4015 19.555 79.1549 19.8017 79.1549 20.0492C79.1549 20.2958 79.4015 20.5425 79.6482 20.5425H84.4582C84.7057 21.2825 84.8282 22.0225 84.8282 22.7625V25.97H84.9532Z" fill="#233B5D" stroke="#233B5D" stroke-width="0.6"/>
<path d="M72.8645 26.461C72.7412 26.3368 72.6187 26.091 72.4945 25.9668C71.5079 24.981 70.152 24.3635 68.6712 24.3635C67.9598 24.3661 67.2559 24.5091 66.5998 24.7842C65.9437 25.0594 65.3484 25.4612 64.8479 25.9668C64.7245 26.091 64.6012 26.3368 64.4779 26.461C64.3554 26.5843 64.2312 26.831 64.1079 26.9543C63.6145 27.8185 63.2445 28.681 63.2445 29.791C63.2445 30.4076 63.3679 31.0243 63.6145 31.5176C63.6145 31.6418 63.7379 31.8876 63.7379 32.0118C63.8604 32.1351 63.8604 32.3818 63.9845 32.5051C64.9712 34.1085 66.5745 35.0951 68.5479 35.0951C70.5212 35.0951 72.2479 33.9851 73.1112 32.5051C73.2345 32.3818 73.2345 32.1351 73.3587 32.0118C73.482 31.8876 73.4812 31.6418 73.4812 31.5176C73.7287 31.0243 73.8512 30.4076 73.8512 29.791C73.8512 28.8043 73.6045 27.8185 72.9887 26.9543C73.1112 26.831 72.9887 26.7076 72.8645 26.461ZM72.7412 31.5176C72.6187 31.6418 72.6187 31.8876 72.4945 32.0118C72.3712 32.1351 72.2479 32.3818 72.1245 32.5051C71.7225 33.0412 71.2011 33.4764 70.6017 33.7761C70.0023 34.0758 69.3413 34.2318 68.6712 34.2318C67.1912 34.2318 66.0812 33.6151 65.2179 32.5051C65.0945 32.3818 64.9712 32.1351 64.8479 32.0118C64.7254 31.8876 64.6012 31.6418 64.6012 31.5176C64.3545 31.0243 64.2304 30.4076 64.2304 29.791C64.2304 28.681 64.6012 27.8185 65.2179 26.9543C65.3412 26.831 65.4645 26.5843 65.7112 26.461C65.9579 26.3368 66.0812 26.091 66.3279 25.9668C66.9972 25.5613 67.7653 25.348 68.5479 25.3501C69.3305 25.3477 70.0986 25.5611 70.7679 25.9668C71.0145 26.091 71.262 26.2135 71.3845 26.461C71.5079 26.5843 71.7545 26.7068 71.8779 26.9543C72.4945 27.6943 72.8645 28.681 72.8645 29.791C73.1112 30.4076 72.9887 30.901 72.7412 31.5176ZM23.4045 26.461C23.2804 26.3368 23.1579 26.091 23.0345 25.9668C22.0479 24.981 20.6912 24.3635 19.2104 24.3635C18.4989 24.3661 17.795 24.5091 17.139 24.7842C16.4829 25.0594 15.8875 25.4612 15.387 25.9668C15.2637 26.091 15.1404 26.3368 15.017 26.461C14.8937 26.5843 14.7704 26.831 14.647 26.9543C14.1537 27.8185 13.7837 28.681 13.7837 29.791C13.7837 30.4076 13.907 31.0243 14.1537 31.5176C14.1537 31.6418 14.277 31.8876 14.277 32.0118C14.4004 32.1351 14.4004 32.3818 14.5237 32.5051C15.5104 34.1085 17.1137 35.0951 19.087 35.0951C21.0604 35.0951 22.787 33.9851 23.6504 32.5051C23.7745 32.3818 23.7745 32.1351 23.897 32.0118C24.0204 31.8876 24.0204 31.6418 24.0204 31.5176C24.267 31.0243 24.3912 30.4076 24.3912 29.791C24.3912 28.8043 24.1445 27.8185 23.5279 26.9543C23.5279 26.831 23.5279 26.7076 23.4045 26.461ZM23.1579 31.5176C23.0345 31.6418 23.0345 31.8876 22.9112 32.0118C22.7887 32.1351 22.6645 32.3818 22.5412 32.5051C22.1391 33.0412 21.6177 33.4764 21.0183 33.7761C20.4189 34.0758 19.758 34.2318 19.0879 34.2318C17.6079 34.2318 16.4979 33.6151 15.6345 32.5051C15.5112 32.3818 15.3879 32.1351 15.2645 32.0118C15.1404 31.8876 15.0179 31.6418 15.0179 31.5176C14.7712 31.0243 14.6479 30.4076 14.6479 29.791C14.6479 28.681 15.0179 27.8185 15.6345 26.9543C15.7579 26.831 15.8812 26.5843 16.1279 26.461C16.3754 26.3368 16.4979 26.091 16.7445 25.9668C17.414 25.561 18.1825 25.3476 18.9654 25.3501C19.8287 25.3501 20.5679 25.5968 21.1854 25.9668C21.432 26.091 21.6787 26.2135 21.802 26.461C21.9254 26.5843 22.172 26.7068 22.2954 26.9543C22.912 27.6943 23.282 28.681 23.282 29.791C23.5287 30.4076 23.4045 30.901 23.1579 31.5176ZM44.0029 15.731H41.5362C41.2895 15.731 41.042 15.9768 41.042 16.2243C41.042 16.471 41.2887 16.7176 41.5362 16.7176H44.0029C44.2495 16.7176 44.4962 16.471 44.4962 16.2243C44.4962 15.9768 44.2504 15.7301 44.0029 15.7301V15.731ZM26.8579 15.731H24.3912C24.1454 15.731 23.8979 15.9768 23.8979 16.2243C23.8979 16.471 24.1445 16.7176 24.3912 16.7176H26.8579C27.1045 16.7176 27.352 16.471 27.352 16.2243C27.352 15.9768 27.1054 15.7301 26.8579 15.7301V15.731ZM53.7462 5.12263C52.6354 3.64263 50.7854 2.7793 48.9354 2.7793H18.7162C16.7429 2.7793 15.0162 3.64346 13.7829 5.24596L8.60286 12.1543C8.23286 12.6476 8.23286 13.1401 8.47953 13.6335C8.72536 14.1276 9.21953 14.3743 9.71286 14.3743H58.1862C58.8029 14.3743 59.2962 14.0043 59.5429 13.5101C59.7904 13.0168 59.6662 12.4001 59.4195 12.0301L53.7462 5.12263ZM9.95953 13.5101C9.71286 13.5101 9.58953 13.3868 9.4662 13.2635C9.34203 13.141 9.34203 12.8935 9.4662 12.7701L14.6462 5.86263C15.632 4.50596 17.1129 3.76596 18.7162 3.76596H22.4162L19.9495 13.5101H9.96036H9.95953ZM21.0595 13.5101L23.5279 3.7668H37.8362L39.0695 13.511H21.0612L21.0595 13.5101ZM39.932 13.5101L38.6979 3.7668H48.9354C49.3054 3.7668 49.6754 3.7668 49.922 3.89013L53.622 13.511H39.9329L39.932 13.5101ZM58.6795 13.2635C58.5562 13.3876 58.4329 13.5101 58.1862 13.5101H54.7329L51.1562 4.26013C51.8736 4.6123 52.5051 5.1175 53.0062 5.74013L58.557 12.7701C58.6804 12.8935 58.8029 13.0168 58.6795 13.2635Z" fill="#233B5D" stroke="#233B5D" stroke-width="0.6"/>
</g>
<defs>
<clipPath id="clip0_34_28">
<rect width="85.8333" height="40" fill="white"/>
</clipPath>
</defs>
</svg>
