<svg width="62" height="28" viewBox="0 0 62 28" fill="none" xmlns="http://www.w3.org/2000/svg">
<path d="M61.314 18.5789V8.74015C61.3048 8.34355 61.2056 7.95442 61.0241 7.60287C60.8427 7.25133 60.5838 6.94682 60.2675 6.7129L60.0473 6.58271L53.1629 2.86296C53.1114 2.82656 53.0728 2.77441 53.0528 2.71417C53.0352 2.66781 53.0271 2.61838 53.0287 2.56878C53.0303 2.51918 53.0417 2.47041 53.0623 2.42535C53.0828 2.38029 53.112 2.33984 53.1482 2.3064C53.1844 2.27295 53.2269 2.24717 53.273 2.2306L54.0992 1.93302C54.1344 1.91795 54.1659 1.89511 54.1913 1.86615C54.2167 1.83719 54.2354 1.80284 54.246 1.76563C54.2468 1.71235 54.2287 1.66058 54.195 1.61964C54.1613 1.57871 54.1143 1.55133 54.0624 1.54245C50.7947 1.07748 38.0724 -0.5964 31.39 0.221944C29.9708 0.361727 28.5724 0.667539 27.2226 1.13328C23.5333 2.53881 20.0973 4.5495 17.0521 7.08487L16.0424 7.92182C11.4792 7.89196 6.96162 8.84281 2.78776 10.7116C2.42505 10.877 2.09954 11.1158 1.8312 11.4132C1.56286 11.7106 1.35735 12.0605 1.22729 12.4413L0.456246 14.7847C0.346826 15.0822 0.290875 15.3972 0.291028 15.7147V20.6619C0.289365 21.1795 0.452935 21.6837 0.757325 22.0993C1.06171 22.515 1.4906 22.8198 1.97999 22.9682L2.36551 23.0984C2.61611 23.1719 2.87565 23.2095 3.13655 23.21H5.76179V22.9868H6.90001C7.17196 23.8909 7.65712 24.7144 8.31359 25.386C9.00481 26.1079 9.87576 26.627 10.8343 26.8886C11.7929 27.1501 12.8034 27.1443 13.7589 26.8718C14.7145 26.5993 15.5796 26.0702 16.2627 25.3405C16.9458 24.6108 17.4216 23.7076 17.6396 22.7264H18.7778V22.9868L44.9384 22.3544H45.5809C45.5809 22.3544 45.5809 22.187 45.5809 22.1126H46.6824C46.7165 23.5924 47.3294 24.9979 48.3864 26.0199C49.4434 27.0419 50.8577 27.5966 52.3184 27.5621C53.7791 27.5276 55.1664 26.9066 56.1751 25.8358C57.1839 24.765 57.7315 23.3321 57.6974 21.8523H58.7989H58.909L59.423 21.6105L59.8086 21.4431C60.2514 21.2422 60.6274 20.9158 60.8912 20.5033C61.1551 20.0908 61.2955 19.6098 61.2956 19.1182V18.8579L61.314 18.5789Z" fill="#407BFF"/>
</svg>
