<svg width="891" height="623" viewBox="0 0 891 623" fill="none" xmlns="http://www.w3.org/2000/svg">
<path d="M800.391 415.678H585.684C583.839 415.675 582.07 414.904 580.765 413.536C579.46 412.167 578.725 410.312 578.722 408.377V80.3296C578.725 78.3942 579.46 76.5389 580.765 75.1703C582.07 73.8017 583.839 73.0314 585.684 73.0281H800.391C802.239 73.0281 804.011 73.7969 805.318 75.1659C806.626 76.5348 807.362 78.392 807.365 80.3296V408.377C807.362 410.314 806.626 412.171 805.318 413.54C804.011 414.909 802.239 415.678 800.391 415.678ZM585.684 73.3396C583.916 73.3396 582.221 74.076 580.971 75.3869C579.722 76.6978 579.019 78.4758 579.019 80.3296V408.377C579.019 410.23 579.722 412.008 580.971 413.319C582.221 414.63 583.916 415.367 585.684 415.367H800.391C802.16 415.367 803.856 414.631 805.108 413.32C806.36 412.009 807.065 410.232 807.068 408.377V80.3296C807.065 78.4746 806.36 76.6967 805.108 75.3862C803.856 74.0756 802.16 73.3396 800.391 73.3396H585.684Z" fill="#E0E0E0"/>
<path d="M552.788 415.678H338.057C336.212 415.675 334.443 414.904 333.138 413.536C331.833 412.167 331.099 410.312 331.096 408.377V80.3296C331.099 78.3942 331.833 76.5389 333.138 75.1703C334.443 73.8017 336.212 73.0314 338.057 73.0281H552.788C554.634 73.0314 556.403 73.8017 557.707 75.1703C559.012 76.5389 559.747 78.3942 559.75 80.3296V408.377C559.747 410.312 559.012 412.167 557.707 413.536C556.403 414.904 554.634 415.675 552.788 415.678ZM338.057 73.3396C336.301 73.3592 334.623 74.104 333.386 75.4124C332.15 76.7208 331.455 78.4875 331.452 80.3296V408.377C331.455 410.229 332.158 412.005 333.408 413.316C334.657 414.626 336.35 415.363 338.117 415.367H552.788C554.555 415.363 556.248 414.626 557.497 413.316C558.747 412.005 559.45 410.229 559.453 408.377V80.3296C559.45 78.4768 558.747 76.7007 557.497 75.3906C556.248 74.0804 554.555 73.3429 552.788 73.3396H338.057Z" fill="#E0E0E0"/>
<path d="M305.316 415.678H90.6088C88.7613 415.678 86.9894 414.909 85.6819 413.54C84.3745 412.171 83.6383 410.314 83.6352 408.377V80.3296C83.6383 78.392 84.3745 76.5348 85.6819 75.1659C86.9894 73.7969 88.7613 73.0281 90.6088 73.0281H305.316C307.161 73.0314 308.93 73.8017 310.235 75.1703C311.54 76.5389 312.275 78.3942 312.278 80.3296V408.377C312.275 410.312 311.54 412.167 310.235 413.536C308.93 414.904 307.161 415.675 305.316 415.678ZM90.6088 73.3396C88.8401 73.3396 87.1437 74.0756 85.8919 75.3862C84.6402 76.6967 83.9353 78.4746 83.9322 80.3296V408.377C83.9353 410.232 84.6402 412.009 85.8919 413.32C87.1437 414.631 88.8401 415.367 90.6088 415.367H305.316C307.084 415.367 308.779 414.63 310.029 413.319C311.278 412.008 311.981 410.23 311.981 408.377V80.3296C311.981 78.4758 311.278 76.6978 310.029 75.3869C308.779 74.076 307.084 73.3396 305.316 73.3396H90.6088Z" fill="#E0E0E0"/>
<path d="M891 491.771H0V491.921H891V491.771Z" fill="#E0E0E0"/>
<path d="M293.947 151.489C299.513 145.712 307.034 142.481 314.865 142.502C322.696 142.524 330.2 145.796 335.738 151.604C341.275 157.412 344.395 165.282 344.416 173.496C344.436 181.709 341.356 189.597 335.848 195.435L319.109 212.991C318.557 213.571 317.901 214.032 317.18 214.346C316.458 214.66 315.684 214.822 314.903 214.822C314.122 214.822 313.348 214.66 312.627 214.346C311.905 214.032 311.249 213.571 310.698 212.991L293.947 195.423C288.394 189.595 285.275 181.694 285.275 173.456C285.275 165.217 288.394 157.316 293.947 151.489ZM314.903 187.909C317.624 187.909 320.284 187.063 322.546 185.478C324.808 183.892 326.572 181.639 327.613 179.002C328.654 176.366 328.927 173.465 328.396 170.666C327.865 167.867 326.555 165.296 324.631 163.278C322.707 161.26 320.256 159.886 317.587 159.329C314.918 158.772 312.152 159.058 309.639 160.15C307.125 161.242 304.976 163.092 303.465 165.464C301.953 167.837 301.146 170.627 301.146 173.481C301.152 177.303 302.605 180.967 305.184 183.667C307.763 186.368 311.259 187.884 314.903 187.884V187.909Z" fill="#E6E6E6"/>
<path d="M787.145 302.342V243.157H752.206V256.651H728.921V108.788H684.134V166.989H670.697V137.932H635.758V279.652H586.48V229.576H555.592V121.012H517.457V193.392H481.627V349.316H453.864V273.385H425.197V224.529H394.737V187.025L360.76 205.814V306.167H324.93V285.471H277.053V430.917L834.237 431.203V302.342H787.145Z" fill="#EBEBEB"/>
<path d="M427.526 431.004V214.599H389.51V431.203C401.544 430.892 427.526 431.004 427.526 431.004Z" fill="#E6E6E6"/>
<path d="M392.86 431.203V312.185H314.511V430.942L392.86 431.203Z" fill="#FAFAFA"/>
<path d="M488.054 431.029V256.302H443.67V431.004L488.054 431.029Z" fill="#E0E0E0"/>
<path d="M452.426 263.155H447.044V274.793H452.426V263.155Z" fill="#FAFAFA"/>
<path d="M463.177 263.155H457.796V274.793H463.177V263.155Z" fill="#FAFAFA"/>
<path d="M473.941 263.155H468.559V274.793H473.941V263.155Z" fill="#FAFAFA"/>
<path d="M484.704 263.155H479.322V274.793H484.704V263.155Z" fill="#FAFAFA"/>
<path d="M452.426 282.68H447.044V294.318H452.426V282.68Z" fill="#FAFAFA"/>
<path d="M463.177 282.68H457.796V294.318H463.177V282.68Z" fill="#FAFAFA"/>
<path d="M473.941 282.68H468.559V294.318H473.941V282.68Z" fill="#FAFAFA"/>
<path d="M484.704 282.68H479.322V294.318H484.704V282.68Z" fill="#FAFAFA"/>
<path d="M452.426 302.192H447.044V313.83H452.426V302.192Z" fill="#FAFAFA"/>
<path d="M463.177 302.192H457.796V313.83H463.177V302.192Z" fill="#FAFAFA"/>
<path d="M473.941 302.192H468.559V313.83H473.941V302.192Z" fill="#FAFAFA"/>
<path d="M484.704 302.192H479.322V313.83H484.704V302.192Z" fill="#FAFAFA"/>
<path d="M452.426 321.705H447.044V333.342H452.426V321.705Z" fill="#FAFAFA"/>
<path d="M463.177 321.705H457.796V333.342H463.177V321.705Z" fill="#FAFAFA"/>
<path d="M473.941 321.705H468.559V333.342H473.941V321.705Z" fill="#FAFAFA"/>
<path d="M484.704 321.705H479.322V333.342H484.704V321.705Z" fill="#FAFAFA"/>
<path d="M452.426 341.217H447.044V352.855H452.426V341.217Z" fill="#FAFAFA"/>
<path d="M463.177 341.217H457.796V352.855H463.177V341.217Z" fill="#FAFAFA"/>
<path d="M473.941 341.217H468.559V352.855H473.941V341.217Z" fill="#FAFAFA"/>
<path d="M484.704 341.217H479.322V352.855H484.704V341.217Z" fill="#FAFAFA"/>
<path d="M452.426 360.729H447.044V372.367H452.426V360.729Z" fill="#FAFAFA"/>
<path d="M463.177 360.729H457.796V372.367H463.177V360.729Z" fill="#FAFAFA"/>
<path d="M473.941 360.729H468.559V372.367H473.941V360.729Z" fill="#FAFAFA"/>
<path d="M484.704 360.729H479.322V372.367H484.704V360.729Z" fill="#FAFAFA"/>
<path d="M452.426 380.242H447.044V391.879H452.426V380.242Z" fill="#FAFAFA"/>
<path d="M463.177 380.242H457.796V391.879H463.177V380.242Z" fill="#FAFAFA"/>
<path d="M473.941 380.242H468.559V391.879H473.941V380.242Z" fill="#FAFAFA"/>
<path d="M484.704 380.242H479.322V391.879H484.704V380.242Z" fill="#FAFAFA"/>
<path d="M452.426 399.767H447.044V411.404H452.426V399.767Z" fill="#FAFAFA"/>
<path d="M463.177 399.767H457.796V411.404H463.177V399.767Z" fill="#FAFAFA"/>
<path d="M473.941 399.767H468.559V411.404H473.941V399.767Z" fill="#FAFAFA"/>
<path d="M484.704 399.767H479.322V411.404H484.704V399.767Z" fill="#FAFAFA"/>
<path d="M642.292 431.116V231.42H550.27V431.178C550.27 431.178 641.591 431.203 642.292 431.116Z" fill="#F5F5F5"/>
<path d="M568.327 239.382H557.172V252.789H568.327V239.382Z" fill="#E6E6E6"/>
<path d="M590.662 239.382H579.506V252.789H590.662V239.382Z" fill="#E6E6E6"/>
<path d="M612.972 239.382H601.817V252.789H612.972V239.382Z" fill="#E6E6E6"/>
<path d="M635.295 239.382H624.14V252.789H635.295V239.382Z" fill="#E6E6E6"/>
<path d="M568.327 261.872H557.172V275.279H568.327V261.872Z" fill="#E6E6E6"/>
<path d="M590.662 261.872H579.506V275.279H590.662V261.872Z" fill="#E6E6E6"/>
<path d="M612.972 261.872H601.817V275.279H612.972V261.872Z" fill="#E6E6E6"/>
<path d="M635.295 261.872H624.14V275.279H635.295V261.872Z" fill="#E6E6E6"/>
<path d="M568.327 284.362H557.172V297.769H568.327V284.362Z" fill="#E6E6E6"/>
<path d="M590.662 284.362H579.506V297.769H590.662V284.362Z" fill="#E6E6E6"/>
<path d="M612.972 284.362H601.817V297.769H612.972V284.362Z" fill="#E6E6E6"/>
<path d="M635.295 284.362H624.14V297.769H635.295V284.362Z" fill="#E6E6E6"/>
<path d="M568.327 306.84H557.172V320.247H568.327V306.84Z" fill="#E6E6E6"/>
<path d="M590.662 306.84H579.506V320.247H590.662V306.84Z" fill="#E6E6E6"/>
<path d="M612.972 306.84H601.817V320.247H612.972V306.84Z" fill="#E6E6E6"/>
<path d="M635.295 306.84H624.14V320.247H635.295V306.84Z" fill="#E6E6E6"/>
<path d="M568.327 329.343H557.172V342.75H568.327V329.343Z" fill="#E6E6E6"/>
<path d="M590.662 329.343H579.506V342.75H590.662V329.343Z" fill="#E6E6E6"/>
<path d="M612.972 329.343H601.817V342.75H612.972V329.343Z" fill="#E6E6E6"/>
<path d="M635.295 329.343H624.14V342.75H635.295V329.343Z" fill="#E6E6E6"/>
<path d="M568.327 351.821H557.172V365.228H568.327V351.821Z" fill="#E6E6E6"/>
<path d="M590.662 351.821H579.506V365.228H590.662V351.821Z" fill="#E6E6E6"/>
<path d="M612.972 351.821H601.817V365.228H612.972V351.821Z" fill="#E6E6E6"/>
<path d="M635.295 351.821H624.14V365.228H635.295V351.821Z" fill="#E6E6E6"/>
<path d="M568.327 374.311H557.172V387.718H568.327V374.311Z" fill="#E6E6E6"/>
<path d="M590.662 374.311H579.506V387.718H590.662V374.311Z" fill="#E6E6E6"/>
<path d="M612.972 374.311H601.817V387.718H612.972V374.311Z" fill="#E6E6E6"/>
<path d="M635.295 374.311H624.14V387.718H635.295V374.311Z" fill="#E6E6E6"/>
<path d="M568.327 396.801H557.172V410.208H568.327V396.801Z" fill="#E6E6E6"/>
<path d="M590.662 396.801H579.506V410.208H590.662V396.801Z" fill="#E6E6E6"/>
<path d="M612.972 396.801H601.817V410.208H612.972V396.801Z" fill="#E6E6E6"/>
<path d="M635.295 396.801H624.14V410.208H635.295V396.801Z" fill="#E6E6E6"/>
<path d="M406.759 229.301H396.483V241.662H406.759V229.301Z" fill="#FAFAFA"/>
<path d="M406.759 250.022H396.483V262.383H406.759V250.022Z" fill="#FAFAFA"/>
<path d="M406.759 270.756H396.483V283.116H406.759V270.756Z" fill="#FAFAFA"/>
<path d="M406.759 291.464H396.483V303.825H406.759V291.464Z" fill="#FAFAFA"/>
<path d="M406.759 312.185H396.483V324.546H406.759V312.185Z" fill="#FAFAFA"/>
<path d="M406.759 332.919H396.483V345.279H406.759V332.919Z" fill="#FAFAFA"/>
<path d="M406.759 353.64H396.483V366H406.759V353.64Z" fill="#FAFAFA"/>
<path d="M406.759 374.361H396.483V386.721H406.759V374.361Z" fill="#FAFAFA"/>
<path d="M420.504 229.301H410.228V241.662H420.504V229.301Z" fill="#FAFAFA"/>
<path d="M420.504 250.022H410.228V262.383H420.504V250.022Z" fill="#FAFAFA"/>
<path d="M420.504 270.756H410.228V283.116H420.504V270.756Z" fill="#FAFAFA"/>
<path d="M420.504 291.464H410.228V303.825H420.504V291.464Z" fill="#FAFAFA"/>
<path d="M420.504 312.185H410.228V324.546H420.504V312.185Z" fill="#FAFAFA"/>
<path d="M420.504 332.919H410.228V345.279H420.504V332.919Z" fill="#FAFAFA"/>
<path d="M420.504 353.64H410.228V366H420.504V353.64Z" fill="#FAFAFA"/>
<path d="M420.504 374.361H410.228V386.721H420.504V374.361Z" fill="#FAFAFA"/>
<path d="M537.344 135.378H526.189V148.785H537.344V135.378Z" fill="#FAFAFA"/>
<path d="M537.344 157.856H526.189V171.263H537.344V157.856Z" fill="#FAFAFA"/>
<path d="M537.344 178.813H526.189V192.22H537.344V178.813Z" fill="#FAFAFA"/>
<path d="M537.344 201.291H526.189V214.698H537.344V201.291Z" fill="#FAFAFA"/>
<path d="M537.344 223.769H526.189V237.176H537.344V223.769Z" fill="#FAFAFA"/>
<path d="M537.344 246.272H526.189V259.679H537.344V246.272Z" fill="#FAFAFA"/>
<path d="M537.344 268.75H526.189V282.157H537.344V268.75Z" fill="#FAFAFA"/>
<path d="M537.344 291.253H526.189V304.659H537.344V291.253Z" fill="#FAFAFA"/>
<path d="M704.935 115.878H693.78V129.285H704.935V115.878Z" fill="#FAFAFA"/>
<path d="M704.935 138.356H693.78V151.763H704.935V138.356Z" fill="#FAFAFA"/>
<path d="M704.935 160.859H693.78V174.266H704.935V160.859Z" fill="#FAFAFA"/>
<path d="M704.935 183.336H693.78V196.743H704.935V183.336Z" fill="#FAFAFA"/>
<path d="M704.935 205.839H693.78V219.246H704.935V205.839Z" fill="#FAFAFA"/>
<path d="M704.935 228.317H693.78V241.724H704.935V228.317Z" fill="#FAFAFA"/>
<path d="M704.935 250.807H693.78V264.214H704.935V250.807Z" fill="#FAFAFA"/>
<path d="M704.935 273.298H693.78V286.705H704.935V273.298Z" fill="#FAFAFA"/>
<path d="M784.864 219.184H717.671V431.203H784.864V219.184Z" fill="#E6E6E6"/>
<path d="M747.311 229.638H727.614V243.045H747.311V229.638Z" fill="#FAFAFA"/>
<path d="M747.311 252.141H727.614V265.548H747.311V252.141Z" fill="#FAFAFA"/>
<path d="M747.311 274.618H727.614V288.025H747.311V274.618Z" fill="#FAFAFA"/>
<path d="M747.311 297.109H727.614V310.516H747.311V297.109Z" fill="#FAFAFA"/>
<path d="M747.311 319.599H727.614V333.006H747.311V319.599Z" fill="#FAFAFA"/>
<path d="M747.311 342.077H727.614V355.484H747.311V342.077Z" fill="#FAFAFA"/>
<path d="M747.311 364.58H727.614V377.987H747.311V364.58Z" fill="#FAFAFA"/>
<path d="M747.311 387.057H727.614V400.464H747.311V387.057Z" fill="#FAFAFA"/>
<path d="M773.661 229.638H753.964V243.045H773.661V229.638Z" fill="#FAFAFA"/>
<path d="M773.661 252.141H753.964V265.548H773.661V252.141Z" fill="#FAFAFA"/>
<path d="M773.661 274.618H753.964V288.025H773.661V274.618Z" fill="#FAFAFA"/>
<path d="M773.661 297.109H753.964V310.516H773.661V297.109Z" fill="#FAFAFA"/>
<path d="M773.661 319.599H753.964V333.006H773.661V319.599Z" fill="#FAFAFA"/>
<path d="M773.661 342.077H753.964V355.484H773.661V342.077Z" fill="#FAFAFA"/>
<path d="M773.661 364.58H753.964V377.987H773.661V364.58Z" fill="#FAFAFA"/>
<path d="M773.661 387.057H753.964V400.464H773.661V387.057Z" fill="#FAFAFA"/>
<path d="M681.033 431.116V284.362H651.725V431.116H681.033Z" fill="#E0E0E0"/>
<path d="M657.499 290.293H653.946V300.286H657.499V290.293Z" fill="#FAFAFA"/>
<path d="M664.603 290.293H661.051V300.286H664.603V290.293Z" fill="#FAFAFA"/>
<path d="M671.695 290.293H668.143V300.286H671.695V290.293Z" fill="#FAFAFA"/>
<path d="M678.811 290.293H675.259V300.286H678.811V290.293Z" fill="#FAFAFA"/>
<path d="M657.499 307.064H653.946V317.057H657.499V307.064Z" fill="#FAFAFA"/>
<path d="M664.603 307.064H661.051V317.057H664.603V307.064Z" fill="#FAFAFA"/>
<path d="M671.695 307.064H668.143V317.057H671.695V307.064Z" fill="#FAFAFA"/>
<path d="M678.811 307.064H675.259V317.057H678.811V307.064Z" fill="#FAFAFA"/>
<path d="M657.499 323.823H653.946V333.816H657.499V323.823Z" fill="#FAFAFA"/>
<path d="M664.603 323.823H661.051V333.816H664.603V323.823Z" fill="#FAFAFA"/>
<path d="M671.695 323.823H668.143V333.816H671.695V323.823Z" fill="#FAFAFA"/>
<path d="M678.811 323.823H675.259V333.816H678.811V323.823Z" fill="#FAFAFA"/>
<path d="M657.499 340.594H653.946V350.587H657.499V340.594Z" fill="#FAFAFA"/>
<path d="M664.603 340.594H661.051V350.587H664.603V340.594Z" fill="#FAFAFA"/>
<path d="M671.695 340.594H668.143V350.587H671.695V340.594Z" fill="#FAFAFA"/>
<path d="M678.811 340.594H675.259V350.587H678.811V340.594Z" fill="#FAFAFA"/>
<path d="M657.499 357.378H653.946V367.371H657.499V357.378Z" fill="#FAFAFA"/>
<path d="M664.603 357.378H661.051V367.371H664.603V357.378Z" fill="#FAFAFA"/>
<path d="M671.695 357.378H668.143V367.371H671.695V357.378Z" fill="#FAFAFA"/>
<path d="M678.811 357.378H675.259V367.371H678.811V357.378Z" fill="#FAFAFA"/>
<path d="M657.499 374.136H653.946V384.129H657.499V374.136Z" fill="#FAFAFA"/>
<path d="M664.603 374.136H661.051V384.129H664.603V374.136Z" fill="#FAFAFA"/>
<path d="M671.695 374.136H668.143V384.129H671.695V374.136Z" fill="#FAFAFA"/>
<path d="M678.811 374.136H675.259V384.129H678.811V374.136Z" fill="#FAFAFA"/>
<path d="M657.499 390.908H653.946V400.9H657.499V390.908Z" fill="#FAFAFA"/>
<path d="M664.603 390.908H661.051V400.9H664.603V390.908Z" fill="#FAFAFA"/>
<path d="M671.695 390.908H668.143V400.9H671.695V390.908Z" fill="#FAFAFA"/>
<path d="M678.811 390.908H675.259V400.9H678.811V390.908Z" fill="#FAFAFA"/>
<path d="M657.499 407.666H653.946V417.659H657.499V407.666Z" fill="#FAFAFA"/>
<path d="M664.603 407.666H661.051V417.659H664.603V407.666Z" fill="#FAFAFA"/>
<path d="M671.695 407.666H668.143V417.659H671.695V407.666Z" fill="#FAFAFA"/>
<path d="M678.811 407.666H675.259V417.659H678.811V407.666Z" fill="#FAFAFA"/>
<path d="M329.943 317.157H320.439V325.542H329.943V317.157Z" fill="#E6E6E6"/>
<path d="M348.939 317.157H339.435V325.542H348.939V317.157Z" fill="#E6E6E6"/>
<path d="M367.924 317.157H358.42V325.542H367.924V317.157Z" fill="#E6E6E6"/>
<path d="M386.932 317.157H377.428V325.542H386.932V317.157Z" fill="#E6E6E6"/>
<path d="M329.943 331.224H320.439V339.61H329.943V331.224Z" fill="#E6E6E6"/>
<path d="M348.939 331.224H339.435V339.61H348.939V331.224Z" fill="#E6E6E6"/>
<path d="M367.924 331.224H358.42V339.61H367.924V331.224Z" fill="#E6E6E6"/>
<path d="M386.932 331.224H377.428V339.61H386.932V331.224Z" fill="#E6E6E6"/>
<path d="M329.943 345.279H320.439V353.665H329.943V345.279Z" fill="#E6E6E6"/>
<path d="M348.939 345.279H339.435V353.665H348.939V345.279Z" fill="#E6E6E6"/>
<path d="M367.924 345.279H358.42V353.665H367.924V345.279Z" fill="#E6E6E6"/>
<path d="M386.932 345.279H377.428V353.665H386.932V345.279Z" fill="#E6E6E6"/>
<path d="M329.943 359.346H320.439V367.732H329.943V359.346Z" fill="#E6E6E6"/>
<path d="M348.939 359.346H339.435V367.732H348.939V359.346Z" fill="#E6E6E6"/>
<path d="M367.924 359.346H358.42V367.732H367.924V359.346Z" fill="#E6E6E6"/>
<path d="M386.932 359.346H377.428V367.732H386.932V359.346Z" fill="#E6E6E6"/>
<path d="M329.943 373.401H320.439V381.787H329.943V373.401Z" fill="#E6E6E6"/>
<path d="M348.939 373.401H339.435V381.787H348.939V373.401Z" fill="#E6E6E6"/>
<path d="M367.924 373.401H358.42V381.787H367.924V373.401Z" fill="#E6E6E6"/>
<path d="M386.932 373.401H377.428V381.787H386.932V373.401Z" fill="#E6E6E6"/>
<path d="M329.943 387.456H320.439V395.842H329.943V387.456Z" fill="#E6E6E6"/>
<path d="M348.939 387.456H339.435V395.842H348.939V387.456Z" fill="#E6E6E6"/>
<path d="M367.924 387.456H358.42V395.842H367.924V387.456Z" fill="#E6E6E6"/>
<path d="M386.932 387.456H377.428V395.842H386.932V387.456Z" fill="#E6E6E6"/>
<path d="M329.943 401.523H320.439V409.909H329.943V401.523Z" fill="#E6E6E6"/>
<path d="M348.939 401.523H339.435V409.909H348.939V401.523Z" fill="#E6E6E6"/>
<path d="M367.924 401.523H358.42V409.909H367.924V401.523Z" fill="#E6E6E6"/>
<path d="M386.932 401.523H377.428V409.909H386.932V401.523Z" fill="#E6E6E6"/>
<path d="M842.72 528.379H776.512V528.902H842.72V528.379Z" fill="#EBEBEB"/>
<path d="M605.488 534.061H588.108V534.584H605.488V534.061Z" fill="#EBEBEB"/>
<path d="M134.612 512.43H48.2803V512.953H134.612V512.43Z" fill="#EBEBEB"/>
<path d="M165.084 512.43H152.42V512.953H165.084V512.43Z" fill="#EBEBEB"/>
<path d="M393.466 521.277H206.225V521.8H393.466V521.277Z" fill="#EBEBEB"/>
<path d="M780.516 562.731C780.516 566.955 640.843 570.369 468.547 570.369C296.252 570.369 156.578 566.955 156.578 562.731C156.578 558.507 296.252 555.093 468.547 555.093C640.843 555.093 780.516 558.519 780.516 562.731Z" fill="#F5F5F5"/>
<path d="M68.6545 104.552H235.39C239.52 104.552 243.482 106.268 246.408 109.325C249.333 112.382 250.985 116.531 251.001 120.862V484.619C251.001 490.237 248.873 495.625 245.085 499.597C241.298 503.57 236.161 505.801 230.805 505.801H73.2758C67.9195 505.801 62.7826 503.57 58.9951 499.597C55.2076 495.625 53.0798 490.237 53.0798 484.619V120.862C53.0955 116.537 54.7422 112.394 57.6603 109.338C60.5784 106.282 64.5309 104.562 68.6545 104.552Z" fill="#263238"/>
<path d="M193.062 113.56L189.89 120.127H112.432L107.823 113.56H71.2087C69.8194 113.551 68.4418 113.829 67.1552 114.379C65.8686 114.929 64.6983 115.74 63.7114 116.766C62.7246 117.792 61.9406 119.012 61.4046 120.356C60.8686 121.701 60.5911 123.143 60.588 124.6V478.589C60.6004 480.784 61.0252 482.955 61.8381 484.978C62.651 487.001 63.836 488.836 65.3254 490.379C66.8149 491.921 68.5795 493.141 70.5185 493.968C72.4575 494.795 74.5329 495.213 76.626 495.198H227.419C229.511 495.211 231.585 494.792 233.523 493.964C235.46 493.137 237.224 491.917 238.712 490.374C240.2 488.832 241.384 486.997 242.196 484.975C243.008 482.953 243.433 480.783 243.445 478.589V124.6C243.442 123.145 243.165 121.705 242.631 120.362C242.096 119.019 241.314 117.8 240.33 116.775C239.346 115.749 238.178 114.937 236.894 114.386C235.61 113.834 234.235 113.554 232.848 113.56H193.062Z" fill="white"/>
<path d="M151.933 112.937C151.943 113.6 151.764 114.25 151.42 114.806C151.076 115.362 150.582 115.797 150.001 116.058C149.42 116.318 148.779 116.392 148.158 116.268C147.537 116.145 146.966 115.831 146.515 115.366C146.065 114.901 145.757 114.306 145.631 113.657C145.504 113.008 145.564 112.334 145.804 111.721C146.043 111.108 146.451 110.584 146.976 110.214C147.5 109.845 148.118 109.648 148.749 109.648C149.586 109.648 150.388 109.993 150.984 110.608C151.58 111.224 151.921 112.06 151.933 112.937Z" fill="white"/>
<path d="M156.638 112.937C156.638 113.268 156.544 113.59 156.37 113.865C156.195 114.14 155.946 114.354 155.655 114.48C155.364 114.606 155.044 114.639 154.735 114.575C154.427 114.511 154.143 114.352 153.92 114.118C153.698 113.885 153.546 113.587 153.485 113.263C153.423 112.939 153.455 112.604 153.575 112.299C153.696 111.993 153.9 111.733 154.161 111.549C154.423 111.366 154.731 111.268 155.046 111.268C155.468 111.268 155.873 111.444 156.172 111.757C156.47 112.07 156.638 112.495 156.638 112.937Z" fill="white"/>
<path d="M232.848 113.56H193.062L189.89 120.127H112.432L107.823 113.56H71.2087C69.8194 113.551 68.4418 113.829 67.1552 114.379C65.8686 114.929 64.6983 115.74 63.7114 116.766C62.7246 117.792 61.9406 119.012 61.4046 120.356C60.8686 121.701 60.5911 123.143 60.588 124.6V215.172H243.445V124.6C243.442 123.145 243.165 121.705 242.631 120.362C242.096 119.019 241.314 117.8 240.33 116.775C239.346 115.749 238.178 114.937 236.894 114.386C235.61 113.834 234.235 113.554 232.848 113.56Z" fill="#407BFF"/>
<path d="M118.604 183V171.054H123.519C124.577 171.054 125.482 171.225 126.232 171.566C126.995 171.907 127.581 172.397 127.99 173.034C128.4 173.671 128.605 174.427 128.605 175.303C128.605 176.179 128.4 176.936 127.99 177.573C127.581 178.199 126.995 178.682 126.232 179.024C125.482 179.354 124.577 179.519 123.519 179.519H119.833L120.823 178.512V183H118.604ZM126.42 183L123.4 178.665H125.772L128.809 183H126.42ZM120.823 178.751L119.833 177.693H123.417C124.395 177.693 125.129 177.482 125.618 177.061C126.119 176.64 126.369 176.054 126.369 175.303C126.369 174.541 126.119 173.955 125.618 173.546C125.129 173.136 124.395 172.931 123.417 172.931H119.833L120.823 171.839V178.751ZM135.165 183.119C134.153 183.119 133.265 182.92 132.503 182.522C131.752 182.113 131.166 181.555 130.745 180.85C130.336 180.144 130.131 179.342 130.131 178.444C130.131 177.533 130.33 176.731 130.728 176.037C131.138 175.332 131.695 174.78 132.401 174.382C133.117 173.984 133.931 173.785 134.841 173.785C135.728 173.785 136.519 173.978 137.213 174.365C137.907 174.752 138.453 175.298 138.851 176.003C139.25 176.709 139.449 177.539 139.449 178.495C139.449 178.586 139.443 178.688 139.432 178.802C139.432 178.916 139.426 179.024 139.415 179.126H131.82V177.71H138.288L137.452 178.153C137.463 177.63 137.355 177.169 137.128 176.771C136.9 176.373 136.587 176.06 136.189 175.832C135.802 175.605 135.353 175.491 134.841 175.491C134.318 175.491 133.857 175.605 133.459 175.832C133.072 176.06 132.765 176.379 132.537 176.788C132.321 177.186 132.213 177.658 132.213 178.205V178.546C132.213 179.092 132.338 179.576 132.588 179.996C132.839 180.417 133.191 180.742 133.646 180.969C134.102 181.197 134.625 181.311 135.217 181.311C135.728 181.311 136.189 181.231 136.599 181.072C137.008 180.912 137.372 180.662 137.691 180.321L138.834 181.635C138.425 182.113 137.907 182.482 137.281 182.744C136.667 182.994 135.962 183.119 135.165 183.119ZM146.669 173.785C147.397 173.785 148.045 173.927 148.614 174.211C149.194 174.496 149.649 174.934 149.979 175.525C150.309 176.106 150.474 176.856 150.474 177.778V183H148.341V178.051C148.341 177.243 148.148 176.64 147.761 176.242C147.385 175.844 146.856 175.645 146.174 175.645C145.673 175.645 145.229 175.747 144.843 175.952C144.456 176.157 144.154 176.464 143.938 176.873C143.733 177.272 143.631 177.778 143.631 178.392V183H141.498V173.887H143.529V176.344L143.17 175.594C143.489 175.013 143.95 174.57 144.553 174.262C145.167 173.944 145.872 173.785 146.669 173.785ZM156.611 183.119C155.609 183.119 154.836 182.863 154.29 182.352C153.744 181.828 153.471 181.06 153.471 180.048V171.873H155.604V179.996C155.604 180.429 155.712 180.764 155.928 181.003C156.155 181.242 156.468 181.362 156.867 181.362C157.344 181.362 157.743 181.237 158.061 180.986L158.658 182.505C158.408 182.71 158.101 182.863 157.737 182.966C157.373 183.068 156.997 183.119 156.611 183.119ZM151.969 175.662V173.955H158.044V175.662H151.969ZM166.028 183V181.157L165.908 180.764V177.539C165.908 176.913 165.721 176.43 165.345 176.088C164.97 175.736 164.401 175.559 163.639 175.559C163.127 175.559 162.62 175.639 162.12 175.798C161.631 175.958 161.215 176.179 160.874 176.464L160.038 174.911C160.527 174.535 161.107 174.257 161.778 174.075C162.461 173.881 163.166 173.785 163.895 173.785C165.214 173.785 166.233 174.103 166.949 174.74C167.677 175.366 168.042 176.339 168.042 177.658V183H166.028ZM163.161 183.119C162.478 183.119 161.881 183.006 161.369 182.778C160.857 182.539 160.459 182.215 160.174 181.805C159.901 181.384 159.765 180.912 159.765 180.389C159.765 179.877 159.884 179.416 160.123 179.007C160.373 178.597 160.777 178.273 161.335 178.034C161.892 177.795 162.632 177.676 163.553 177.676H166.198V179.092H163.707C162.979 179.092 162.49 179.211 162.239 179.45C161.989 179.678 161.864 179.962 161.864 180.304C161.864 180.69 162.017 180.998 162.325 181.225C162.632 181.453 163.058 181.566 163.604 181.566C164.128 181.566 164.594 181.447 165.004 181.208C165.425 180.969 165.726 180.617 165.908 180.15L166.267 181.43C166.062 181.965 165.692 182.38 165.157 182.676C164.634 182.972 163.969 183.119 163.161 183.119ZM169.841 186.43C169.442 186.43 169.067 186.385 168.714 186.294C168.35 186.214 168.043 186.083 167.793 185.901L168.407 184.314C168.737 184.553 169.152 184.672 169.653 184.672C170.04 184.672 170.341 184.547 170.557 184.297C170.774 184.058 170.882 183.7 170.882 183.222V173.887H173.015V183.171C173.015 184.172 172.736 184.963 172.179 185.543C171.632 186.134 170.853 186.43 169.841 186.43ZM171.94 172.385C171.541 172.385 171.212 172.26 170.95 172.01C170.7 171.76 170.574 171.458 170.574 171.105C170.574 170.741 170.7 170.44 170.95 170.201C171.212 169.951 171.541 169.825 171.94 169.825C172.338 169.825 172.662 169.945 172.912 170.184C173.174 170.411 173.305 170.701 173.305 171.054C173.305 171.43 173.18 171.748 172.929 172.01C172.679 172.26 172.349 172.385 171.94 172.385ZM179.504 183.171C178.571 183.171 177.678 183.04 176.824 182.778C175.971 182.505 175.294 182.158 174.793 181.737L175.561 180.014C176.039 180.389 176.631 180.702 177.336 180.952C178.042 181.202 178.764 181.328 179.504 181.328C180.129 181.328 180.636 181.259 181.022 181.123C181.409 180.986 181.694 180.804 181.876 180.577C182.058 180.338 182.149 180.07 182.149 179.775C182.149 179.411 182.018 179.12 181.756 178.904C181.495 178.677 181.153 178.5 180.732 178.375C180.323 178.239 179.862 178.114 179.35 178C178.849 177.886 178.343 177.755 177.831 177.607C177.331 177.448 176.87 177.249 176.449 177.01C176.039 176.76 175.704 176.43 175.442 176.02C175.18 175.611 175.049 175.087 175.049 174.45C175.049 173.802 175.22 173.21 175.561 172.675C175.914 172.129 176.443 171.697 177.149 171.378C177.865 171.048 178.77 170.883 179.862 170.883C180.579 170.883 181.29 170.974 181.995 171.157C182.701 171.339 183.315 171.6 183.838 171.942L183.139 173.665C182.604 173.347 182.052 173.113 181.483 172.965C180.914 172.806 180.368 172.727 179.845 172.727C179.231 172.727 178.73 172.801 178.343 172.948C177.968 173.096 177.689 173.29 177.507 173.529C177.336 173.768 177.251 174.041 177.251 174.348C177.251 174.712 177.376 175.008 177.626 175.235C177.888 175.451 178.224 175.622 178.633 175.747C179.054 175.872 179.521 175.997 180.033 176.123C180.545 176.236 181.051 176.367 181.551 176.515C182.063 176.663 182.524 176.856 182.934 177.095C183.355 177.334 183.69 177.658 183.941 178.068C184.202 178.478 184.333 178.995 184.333 179.621C184.333 180.258 184.157 180.85 183.804 181.396C183.463 181.931 182.934 182.363 182.217 182.693C181.5 183.011 180.596 183.171 179.504 183.171ZM186.328 183V173.887H188.461V183H186.328ZM187.403 172.385C187.005 172.385 186.675 172.26 186.414 172.01C186.163 171.76 186.038 171.458 186.038 171.105C186.038 170.741 186.163 170.44 186.414 170.201C186.675 169.951 187.005 169.825 187.403 169.825C187.802 169.825 188.126 169.945 188.376 170.184C188.638 170.411 188.769 170.701 188.769 171.054C188.769 171.43 188.643 171.748 188.393 172.01C188.143 172.26 187.813 172.385 187.403 172.385Z" fill="white"/>
<path d="M171.749 159.961V153.37C171.743 153.104 171.679 152.844 171.562 152.608C171.444 152.373 171.277 152.169 171.072 152.012L170.929 151.925L166.474 149.433C166.441 149.408 166.416 149.373 166.403 149.333C166.392 149.302 166.387 149.269 166.388 149.236C166.389 149.202 166.396 149.17 166.409 149.14C166.423 149.109 166.442 149.082 166.465 149.06C166.488 149.038 166.516 149.02 166.546 149.009L167.08 148.81C167.103 148.8 167.123 148.784 167.14 148.765C167.156 148.746 167.168 148.723 167.175 148.698C167.176 148.662 167.164 148.627 167.142 148.6C167.121 148.572 167.09 148.554 167.057 148.548C164.942 148.237 156.709 147.115 152.385 147.663C151.466 147.757 150.561 147.962 149.688 148.274C147.301 149.216 145.077 150.563 143.106 152.261L142.453 152.822C139.5 152.802 136.577 153.439 133.876 154.691C133.641 154.802 133.43 154.962 133.257 155.161C133.083 155.36 132.95 155.595 132.866 155.85L132.367 157.42C132.296 157.619 132.26 157.83 132.26 158.043V161.357C132.259 161.704 132.365 162.042 132.562 162.32C132.759 162.598 133.036 162.803 133.353 162.902L133.602 162.989C133.765 163.039 133.933 163.064 134.101 163.064H135.8V162.914H136.537C136.713 163.52 137.027 164.072 137.452 164.522C137.899 165.005 138.463 165.353 139.083 165.528C139.703 165.704 140.357 165.7 140.975 165.517C141.594 165.335 142.154 164.98 142.596 164.491C143.038 164.002 143.346 163.397 143.487 162.74H144.223V162.914L161.152 162.491H161.568C161.568 162.491 161.568 162.379 161.568 162.329H162.281C162.303 163.32 162.7 164.262 163.383 164.946C164.067 165.631 164.983 166.003 165.928 165.98C166.873 165.957 167.771 165.541 168.424 164.823C169.077 164.106 169.431 163.146 169.409 162.154H170.122H170.193L170.526 161.992L170.775 161.88C171.062 161.746 171.305 161.527 171.476 161.251C171.646 160.974 171.737 160.652 171.737 160.323V160.148L171.749 159.961Z" fill="white"/>
<path d="M217.273 341.155L79.6554 344.531V319.848H218.592L217.273 341.155Z" fill="#263238"/>
<path d="M74.3569 326.178V338.7C74.3534 340.008 74.7512 341.282 75.4914 342.335C76.2316 343.387 77.275 344.162 78.4674 344.544L79.4416 344.855C80.0409 345.053 80.6669 345.145 81.2948 345.13L87.7219 344.968C87.0347 342.457 86.9055 339.815 87.3441 337.244C87.7827 334.674 88.7775 332.242 90.252 330.138C91.7265 328.033 93.6415 326.311 95.8498 325.104C98.058 323.897 100.501 323.238 102.99 323.175C105.48 323.113 107.949 323.651 110.21 324.747C112.47 325.842 114.461 327.467 116.029 329.496C117.597 331.524 118.701 333.903 119.255 336.449C119.81 338.995 119.8 341.641 119.228 344.183L184.627 342.55C184.522 341.749 184.471 340.942 184.473 340.133C184.424 337.852 184.812 335.584 185.613 333.463C186.414 331.341 187.612 329.41 189.137 327.782C190.661 326.154 192.481 324.863 194.489 323.985C196.497 323.107 198.652 322.66 200.827 322.67C203.003 322.68 205.154 323.147 207.155 324.043C209.155 324.94 210.964 326.247 212.475 327.889C213.986 329.531 215.168 331.473 215.951 333.602C216.734 335.73 217.103 338.002 217.036 340.283C217.036 340.619 217.036 340.943 217.036 341.267L217.297 341.155L219.531 340.108C220.6 339.586 221.504 338.754 222.136 337.709C222.767 336.664 223.1 335.452 223.095 334.215V308.721C223.097 307.544 222.791 306.388 222.211 305.38C221.631 304.371 220.798 303.549 219.804 303.002L202.994 293.732C202.805 293.62 202.658 293.445 202.578 293.234C202.531 293.115 202.507 292.988 202.509 292.86C202.51 292.732 202.537 292.606 202.587 292.489C202.637 292.372 202.71 292.267 202.8 292.181C202.89 292.095 202.997 292.029 203.112 291.988L205.168 291.215C205.251 291.183 205.325 291.128 205.381 291.055C205.438 290.983 205.475 290.896 205.488 290.804C205.497 290.738 205.492 290.672 205.476 290.608C205.459 290.544 205.431 290.484 205.392 290.432C205.354 290.38 205.305 290.337 205.251 290.304C205.196 290.272 205.135 290.251 205.073 290.243C197.089 289.072 166.023 284.811 149.688 286.904C130.894 289.371 112.86 306.516 112.86 306.516C98.996 305.968 86.0587 311.039 80.487 313.568C79.5974 313.975 78.7992 314.574 78.1443 315.325C77.4894 316.076 76.9924 316.964 76.6854 317.929L74.7727 323.848C74.5169 324.596 74.3765 325.383 74.3569 326.178Z" fill="#407BFF"/>
<path d="M184.639 342.55C184.544 341.799 184.496 341.041 184.496 340.283C184.496 339.896 184.496 339.51 184.496 339.136L172.616 334.053C171.923 333.761 171.176 333.633 170.43 333.679L129.29 336.52C128.619 336.558 127.963 336.744 127.365 337.068L119.548 341.292C119.495 342.265 119.364 343.232 119.156 344.183L184.639 342.55Z" fill="#263238"/>
<path d="M223.142 334.215V333.567L216.454 335.71C216.837 337.201 217.032 338.738 217.036 340.283C217.036 340.619 217.036 340.943 217.036 341.267L217.297 341.155L219.542 340.108C220.617 339.59 221.528 338.76 222.166 337.715C222.804 336.67 223.143 335.455 223.142 334.215Z" fill="#263238"/>
<path d="M76.2577 343.198C76.8944 343.82 77.6584 344.28 78.4912 344.544L79.4653 344.855C80.0646 345.053 80.6907 345.145 81.3186 345.13L87.7457 344.968C87.5095 344.115 87.3386 343.244 87.2348 342.363L76.2577 343.198Z" fill="#263238"/>
<path d="M200.772 321.593C200.033 321.593 199.295 321.643 198.562 321.742C193.881 322.364 189.626 324.908 186.731 328.816C183.836 332.724 182.537 337.677 183.118 342.588H184.663C184.558 341.787 184.506 340.979 184.508 340.17C184.46 337.889 184.848 335.621 185.649 333.5C186.45 331.379 187.648 329.447 189.172 327.819C190.697 326.192 192.516 324.901 194.524 324.023C196.532 323.145 198.688 322.697 200.863 322.707C203.038 322.717 205.19 323.184 207.19 324.081C209.191 324.977 211 326.285 212.511 327.926C214.022 329.568 215.203 331.511 215.987 333.639C216.77 335.768 217.139 338.039 217.071 340.32C217.071 340.656 217.071 340.98 217.071 341.304L217.333 341.192L218.616 340.582V340.32C218.616 335.363 216.738 330.609 213.396 327.104C210.055 323.599 205.522 321.63 200.796 321.63L200.772 321.593Z" fill="#263238"/>
<path d="M103.356 321.593C101.833 321.595 100.316 321.8 98.8416 322.203C94.2704 323.456 90.3609 326.563 87.9727 330.838C85.5845 335.114 84.9132 340.21 86.1062 345.005H87.6982C87.011 342.495 86.8817 339.853 87.3203 337.282C87.7589 334.711 88.7537 332.28 90.2283 330.175C91.7028 328.071 93.6178 326.349 95.826 325.142C98.0342 323.935 100.477 323.275 102.966 323.213C105.456 323.151 107.926 323.688 110.186 324.784C112.446 325.88 114.437 327.504 116.005 329.533C117.573 331.562 118.677 333.941 119.232 336.487C119.786 339.033 119.777 341.678 119.204 344.22H120.772C121.034 342.947 121.165 341.647 121.164 340.345C121.164 335.388 119.287 330.634 115.945 327.129C112.603 323.624 108.07 321.655 103.344 321.655L103.356 321.593Z" fill="#263238"/>
<path d="M119.002 306.217C118.814 306.363 118.683 306.575 118.634 306.815C118.583 307.085 118.634 307.366 118.776 307.598C118.918 307.83 119.139 307.996 119.394 308.061L126.225 309.706C126.833 309.845 127.459 309.878 128.078 309.805L178.366 303.252C179.589 303.09 180.722 302.491 181.574 301.557L188.049 294.368C188.266 294.131 188.4 293.823 188.429 293.495C188.447 293.303 188.428 293.109 188.375 292.924C188.321 292.739 188.234 292.567 188.117 292.418C188 292.269 187.856 292.145 187.693 292.054C187.531 291.963 187.353 291.907 187.169 291.888C175.076 290.642 159.786 289.508 150.175 290.742C137.57 292.399 125.025 301.333 119.002 306.217Z" fill="#263238"/>
<g opacity="0.3">
<path d="M152.064 312.273C151.987 312.243 151.917 312.199 151.857 312.141C151.797 312.083 151.748 312.013 151.714 311.936C151.68 311.858 151.661 311.774 151.657 311.689C151.654 311.603 151.667 311.518 151.696 311.438C151.763 311.231 151.89 311.052 152.057 310.922C152.225 310.793 152.426 310.721 152.634 310.715L158.634 310.453C158.711 310.43 158.794 310.43 158.871 310.453C159.026 310.513 159.153 310.633 159.224 310.789C159.295 310.945 159.305 311.125 159.251 311.288C159.18 311.495 159.051 311.674 158.882 311.803C158.713 311.932 158.51 312.004 158.301 312.011L152.302 312.273C152.223 312.285 152.143 312.285 152.064 312.273Z" fill="black"/>
</g>
<path d="M196.662 294.243C196.411 294.484 196.259 294.817 196.239 295.173C196.219 295.529 196.332 295.879 196.555 296.149L197.98 297.769C198.145 297.953 198.355 298.086 198.586 298.155L216.014 303.227C216.316 303.312 216.628 303.354 216.941 303.351H220.398C220.217 303.225 220.031 303.108 219.839 303.002L203.029 293.72C202.922 293.668 202.827 293.594 202.749 293.502C202.671 293.41 202.612 293.302 202.577 293.185C202.541 293.067 202.529 292.944 202.541 292.821C202.554 292.699 202.59 292.58 202.649 292.474L197.184 293.906C196.987 293.974 196.808 294.089 196.662 294.243Z" fill="#263238"/>
<path d="M112.86 306.516L113.81 306.803C114.173 306.905 114.554 306.915 114.922 306.833C115.29 306.75 115.633 306.578 115.925 306.329C121.437 301.432 131.013 293.869 141.348 290.443C141.372 290.435 141.394 290.423 141.412 290.405C141.431 290.388 141.446 290.367 141.455 290.343C141.468 290.32 141.476 290.295 141.479 290.269C141.483 290.242 141.481 290.216 141.474 290.19C141.468 290.165 141.456 290.141 141.441 290.12C141.425 290.099 141.406 290.082 141.384 290.069L140.101 289.384C125.168 294.791 112.86 306.516 112.86 306.516Z" fill="#263238"/>
<path d="M200.784 354.512C208.277 354.512 214.351 348.141 214.351 340.283C214.351 332.424 208.277 326.053 200.784 326.053C193.291 326.053 187.217 332.424 187.217 340.283C187.217 348.141 193.291 354.512 200.784 354.512Z" fill="#263238"/>
<path opacity="0.4" d="M200.784 349.005C205.377 349.005 209.1 345.1 209.1 340.283C209.1 335.466 205.377 331.561 200.784 331.561C196.191 331.561 192.468 335.466 192.468 340.283C192.468 345.1 196.191 349.005 200.784 349.005Z" fill="white"/>
<g opacity="0.3">
<path d="M201.449 333.131C201.449 332.745 201.151 332.433 200.784 332.433C200.416 332.433 200.119 332.745 200.119 333.131V337.604C200.119 337.989 200.416 338.301 200.784 338.301C201.151 338.301 201.449 337.989 201.449 337.604V333.131Z" fill="white"/>
</g>
<g opacity="0.3">
<path d="M201.449 342.961C201.449 342.576 201.151 342.264 200.784 342.264C200.416 342.264 200.119 342.576 200.119 342.961V347.435C200.119 347.82 200.416 348.132 200.784 348.132C201.151 348.132 201.449 347.82 201.449 347.435V342.961Z" fill="white"/>
</g>
<g opacity="0.3">
<path d="M203.326 339.547C203.171 339.638 202.989 339.662 202.818 339.613C202.647 339.564 202.501 339.446 202.411 339.286C202.326 339.125 202.304 338.936 202.35 338.758C202.397 338.581 202.509 338.43 202.661 338.339L206.356 336.084C206.509 335.994 206.689 335.971 206.858 336.02C207.028 336.069 207.171 336.186 207.259 336.345C207.303 336.424 207.332 336.51 207.345 336.601C207.357 336.691 207.352 336.783 207.329 336.871C207.307 336.959 207.269 337.042 207.216 337.114C207.163 337.187 207.096 337.247 207.021 337.292L203.326 339.547Z" fill="white"/>
</g>
<g opacity="0.3">
<path d="M195.212 344.444C195.057 344.535 194.875 344.558 194.704 344.509C194.533 344.46 194.387 344.343 194.297 344.183C194.212 344.022 194.19 343.833 194.236 343.655C194.283 343.478 194.395 343.327 194.547 343.236L198.23 340.98C198.384 340.89 198.567 340.866 198.738 340.915C198.909 340.964 199.055 341.082 199.144 341.242C199.229 341.404 199.251 341.593 199.207 341.771C199.163 341.95 199.056 342.103 198.907 342.201L195.212 344.444Z" fill="white"/>
</g>
<g opacity="0.3">
<path d="M206.356 344.457L202.661 342.214C202.508 342.12 202.396 341.967 202.349 341.788C202.303 341.608 202.325 341.417 202.411 341.254C202.456 341.175 202.514 341.105 202.584 341.049C202.654 340.994 202.734 340.953 202.819 340.93C202.904 340.907 202.993 340.901 203.08 340.914C203.167 340.927 203.251 340.958 203.326 341.005L207.021 343.248C207.172 343.344 207.281 343.498 207.326 343.677C207.37 343.856 207.346 344.047 207.258 344.207C207.215 344.287 207.158 344.356 207.089 344.412C207.02 344.467 206.941 344.508 206.857 344.531C206.773 344.554 206.685 344.56 206.599 344.547C206.513 344.534 206.43 344.503 206.356 344.457Z" fill="white"/>
</g>
<g opacity="0.3">
<path d="M199.144 339.286C199.055 339.446 198.909 339.564 198.738 339.613C198.567 339.662 198.384 339.638 198.23 339.548L194.547 337.292C194.395 337.201 194.283 337.05 194.236 336.873C194.19 336.695 194.212 336.506 194.297 336.345C194.387 336.185 194.533 336.067 194.704 336.018C194.875 335.97 195.057 335.993 195.212 336.084L198.907 338.339C199.057 338.432 199.166 338.584 199.211 338.761C199.255 338.938 199.231 339.127 199.144 339.286Z" fill="white"/>
</g>
<path d="M199.667 340.27C199.67 339.962 199.789 339.667 199.998 339.45C200.208 339.233 200.49 339.111 200.784 339.111C201.005 339.111 201.221 339.18 201.404 339.309C201.588 339.437 201.731 339.62 201.816 339.834C201.9 340.048 201.922 340.284 201.879 340.511C201.836 340.738 201.73 340.947 201.574 341.111C201.417 341.275 201.218 341.386 201.002 341.431C200.785 341.477 200.561 341.453 200.357 341.365C200.152 341.276 199.978 341.126 199.855 340.933C199.733 340.741 199.667 340.514 199.667 340.283V340.27Z" fill="#263238"/>
<path d="M103.392 354.512C110.884 354.512 116.959 348.141 116.959 340.283C116.959 332.424 110.884 326.053 103.392 326.053C95.8988 326.053 89.8247 332.424 89.8247 340.283C89.8247 348.141 95.8988 354.512 103.392 354.512Z" fill="#263238"/>
<path opacity="0.4" d="M103.392 349.005C107.984 349.005 111.708 345.1 111.708 340.283C111.708 335.466 107.984 331.561 103.392 331.561C98.7988 331.561 95.0756 335.466 95.0756 340.283C95.0756 345.1 98.7988 349.005 103.392 349.005Z" fill="white"/>
<g opacity="0.3">
<path d="M104.057 333.131C104.057 332.745 103.759 332.433 103.392 332.433C103.024 332.433 102.726 332.745 102.726 333.131V337.604C102.726 337.989 103.024 338.301 103.392 338.301C103.759 338.301 104.057 337.989 104.057 337.604V333.131Z" fill="white"/>
</g>
<g opacity="0.3">
<path d="M104.057 342.961C104.057 342.576 103.759 342.264 103.392 342.264C103.024 342.264 102.726 342.576 102.726 342.961V347.435C102.726 347.82 103.024 348.132 103.392 348.132C103.759 348.132 104.057 347.82 104.057 347.435V342.961Z" fill="white"/>
</g>
<g opacity="0.3">
<path d="M105.934 339.547C105.781 339.638 105.6 339.661 105.431 339.612C105.262 339.563 105.118 339.445 105.031 339.286C104.944 339.127 104.92 338.938 104.965 338.761C105.009 338.584 105.118 338.432 105.269 338.339L108.963 336.084C109.116 335.994 109.297 335.971 109.466 336.02C109.635 336.069 109.779 336.186 109.866 336.345C109.952 336.506 109.974 336.695 109.927 336.873C109.881 337.05 109.769 337.201 109.617 337.292L105.934 339.547Z" fill="white"/>
</g>
<g opacity="0.3">
<path d="M96.917 344.183C96.8724 344.104 96.8432 344.017 96.831 343.927C96.8188 343.837 96.824 343.745 96.8461 343.657C96.8682 343.569 96.9069 343.486 96.9599 343.414C97.0129 343.341 97.0791 343.281 97.1546 343.236L100.849 340.98C101.004 340.89 101.187 340.866 101.358 340.915C101.529 340.964 101.675 341.082 101.764 341.242C101.851 341.404 101.873 341.596 101.826 341.775C101.78 341.955 101.668 342.108 101.515 342.201L97.8318 344.444C97.677 344.535 97.4945 344.558 97.3235 344.509C97.1524 344.46 97.0065 344.343 96.917 344.183Z" fill="white"/>
</g>
<g opacity="0.3">
<path d="M109.878 344.207C109.834 344.287 109.775 344.357 109.705 344.413C109.635 344.468 109.555 344.509 109.47 344.532C109.385 344.555 109.297 344.561 109.21 344.548C109.123 344.535 109.039 344.504 108.963 344.457L105.269 342.214C105.12 342.116 105.012 341.962 104.968 341.784C104.924 341.605 104.947 341.416 105.031 341.254C105.075 341.175 105.134 341.105 105.204 341.049C105.274 340.994 105.354 340.953 105.439 340.93C105.524 340.907 105.613 340.901 105.7 340.914C105.787 340.927 105.87 340.958 105.946 341.005L109.629 343.248C109.782 343.342 109.894 343.495 109.94 343.674C109.987 343.854 109.965 344.045 109.878 344.207Z" fill="white"/>
</g>
<g opacity="0.3">
<path d="M101.752 339.298C101.663 339.456 101.518 339.57 101.349 339.617C101.181 339.664 101.001 339.639 100.849 339.548L97.1546 337.292C97.0791 337.247 97.0129 337.187 96.9599 337.114C96.9069 337.042 96.8682 336.959 96.8461 336.871C96.824 336.783 96.8188 336.691 96.831 336.601C96.8432 336.51 96.8724 336.424 96.917 336.345C97.0065 336.185 97.1524 336.067 97.3235 336.018C97.4945 335.97 97.677 335.993 97.8318 336.084L101.515 338.339C101.667 338.43 101.778 338.581 101.825 338.758C101.872 338.936 101.85 339.125 101.764 339.286L101.752 339.298Z" fill="white"/>
</g>
<path d="M103.356 339.111C103.573 339.126 103.782 339.207 103.956 339.344C104.13 339.481 104.262 339.669 104.336 339.884C104.409 340.099 104.421 340.331 104.371 340.554C104.32 340.776 104.208 340.977 104.05 341.134C103.891 341.29 103.692 341.394 103.478 341.434C103.263 341.473 103.042 341.446 102.843 341.356C102.643 341.265 102.472 341.116 102.352 340.925C102.233 340.734 102.168 340.511 102.168 340.283C102.168 340.122 102.199 339.964 102.259 339.816C102.32 339.669 102.408 339.537 102.52 339.427C102.631 339.317 102.763 339.232 102.907 339.178C103.051 339.124 103.203 339.101 103.356 339.111Z" fill="#263238"/>
<path opacity="0.3" d="M221.716 313.444C221.933 313.369 222.113 313.209 222.217 312.997C222.322 312.785 222.342 312.538 222.275 312.31C222.12 309.319 221.514 306.653 219.768 304.834C219.714 304.636 219.595 304.464 219.432 304.348C219.269 304.231 219.073 304.179 218.877 304.198L208.542 305.22C208.361 305.24 208.19 305.318 208.054 305.444C207.901 305.612 207.815 305.835 207.815 306.067C207.815 306.3 207.901 306.523 208.054 306.69L211.013 310.042C211.119 310.155 211.249 310.24 211.393 310.291L221.289 313.431C221.428 313.473 221.575 313.478 221.716 313.444Z" fill="black"/>
<path d="M118.634 306.815C118.577 307.086 118.625 307.369 118.768 307.603C118.911 307.837 119.136 308.001 119.394 308.061L126.225 309.706C126.832 309.857 127.46 309.891 128.078 309.805L129.908 309.569L132.094 297.258C127.514 299.854 123.143 302.838 119.026 306.18C118.823 306.332 118.683 306.559 118.634 306.815Z" fill="black"/>
<path d="M162.613 290.318L158.574 305.918L164.289 305.183L166.486 290.318H162.613Z" fill="black"/>
<path d="M188.441 293.52C188.474 293.133 188.36 292.747 188.125 292.446C187.889 292.145 187.55 291.954 187.181 291.913C185.566 291.738 183.855 291.576 182.132 291.414L181.491 301.682L181.574 301.594L188.049 294.405C188.268 294.163 188.405 293.852 188.441 293.52Z" fill="black"/>
<path d="M129.706 307.363C129.382 307.365 129.062 307.299 128.763 307.17C128.464 307.041 128.192 306.851 127.963 306.612C127.735 306.372 127.554 306.087 127.431 305.773C127.308 305.459 127.245 305.123 127.247 304.784C127.252 304.202 127.445 303.639 127.795 303.186C128.144 302.734 128.629 302.419 129.171 302.292L132.462 301.532L133.234 307.301L129.765 307.388L129.706 307.363Z" fill="#407BFF"/>
<path opacity="0.3" d="M132.272 307.301L133.234 307.276L132.462 301.507L131.523 301.719L132.272 307.301Z" fill="black"/>
<path opacity="0.6" d="M159.738 334.576C159.699 334.567 159.665 334.542 159.643 334.508C159.621 334.473 159.613 334.43 159.62 334.389C159.62 334.215 163.184 316.584 163.706 314.179C164.229 311.774 163.706 304.211 163.706 304.211C163.706 304.17 163.721 304.131 163.747 304.101C163.774 304.071 163.81 304.052 163.849 304.049C163.932 304.049 164.003 304.111 164.003 304.198C164.003 304.51 164.467 311.849 164.003 314.266C163.54 316.683 159.964 334.302 159.929 334.489C159.913 334.525 159.885 334.555 159.85 334.571C159.814 334.587 159.775 334.589 159.738 334.576Z" fill="black"/>
<path opacity="0.6" d="M127.461 337.23C127.436 337.23 127.412 337.224 127.391 337.21C127.37 337.197 127.353 337.178 127.342 337.155C127.342 337.155 122.673 329.916 121.081 326.901C119.489 323.885 118.527 307.986 118.491 307.313C118.488 307.272 118.499 307.232 118.524 307.199C118.548 307.167 118.583 307.145 118.622 307.139C118.662 307.139 118.701 307.154 118.732 307.181C118.762 307.209 118.782 307.247 118.788 307.289C118.788 307.451 119.727 323.711 121.342 326.751C122.958 329.791 127.544 336.918 127.579 336.981C127.607 337.011 127.622 337.051 127.622 337.093C127.622 337.135 127.607 337.175 127.579 337.205L127.461 337.23Z" fill="black"/>
<path opacity="0.6" d="M82.2096 315.437C82.1791 315.437 82.1493 315.428 82.1239 315.41C82.0986 315.392 82.0788 315.367 82.067 315.338C82.0573 315.319 82.0518 315.299 82.0509 315.278C82.05 315.257 82.0537 315.236 82.0617 315.216C82.0697 315.197 82.0819 315.18 82.0973 315.167C82.1126 315.153 82.1307 315.143 82.1502 315.138C87.9268 313.122 93.8192 311.491 99.792 310.254C103.154 309.693 114.618 306.728 114.737 306.69C114.776 306.683 114.817 306.692 114.85 306.715C114.883 306.738 114.907 306.774 114.915 306.815C114.921 306.835 114.922 306.855 114.919 306.875C114.917 306.896 114.91 306.915 114.9 306.933C114.89 306.95 114.877 306.965 114.861 306.977C114.845 306.989 114.827 306.998 114.808 307.002C114.69 307.002 103.213 310.005 99.8395 310.565C93.9082 311.787 88.0557 313.398 82.3165 315.388L82.2096 315.437Z" fill="black"/>
<path d="M195.64 247.107H115.284V255.467H195.64V247.107Z" fill="#263238"/>
<path opacity="0.7" d="M195.64 247.107H115.284V255.467H195.64V247.107Z" fill="white"/>
<path d="M194.345 376.952H122.792V385.313H194.345V376.952Z" fill="#263238"/>
<path opacity="0.7" d="M194.345 376.952H122.792V385.313H194.345V376.952Z" fill="white"/>
<path d="M144.318 394.272H122.792V402.632H144.318V394.272Z" fill="#263238"/>
<path opacity="0.7" d="M144.318 394.272H122.792V402.632H144.318V394.272Z" fill="white"/>
<path d="M216.596 427.266H92.0819V468.234H216.596V427.266Z" fill="#407BFF"/>
<path opacity="0.3" d="M216.596 427.266H204.847V468.234H216.596V427.266Z" fill="black"/>
<path d="M132.027 449.542V439.687H136.082C136.955 439.687 137.701 439.827 138.32 440.109C138.949 440.391 139.432 440.794 139.77 441.32C140.108 441.845 140.277 442.47 140.277 443.192C140.277 443.915 140.108 444.539 139.77 445.065C139.432 445.581 138.949 445.98 138.32 446.261C137.701 446.533 136.955 446.67 136.082 446.67H133.041L133.857 445.839V449.542H132.027ZM138.475 449.542L135.983 445.966H137.94L140.446 449.542H138.475ZM133.857 446.036L133.041 445.163H135.997C136.804 445.163 137.41 444.99 137.813 444.642C138.226 444.295 138.433 443.812 138.433 443.192C138.433 442.563 138.226 442.08 137.813 441.742C137.41 441.404 136.804 441.235 135.997 441.235H133.041L133.857 440.334V446.036ZM145.689 449.64C144.854 449.64 144.122 449.476 143.493 449.147C142.874 448.809 142.39 448.35 142.043 447.768C141.705 447.186 141.536 446.524 141.536 445.783C141.536 445.032 141.7 444.37 142.029 443.798C142.367 443.216 142.827 442.76 143.409 442.432C144 442.103 144.671 441.939 145.422 441.939C146.154 441.939 146.806 442.099 147.379 442.418C147.951 442.737 148.402 443.188 148.73 443.769C149.059 444.351 149.223 445.036 149.223 445.825C149.223 445.9 149.218 445.984 149.209 446.078C149.209 446.172 149.204 446.261 149.195 446.346H142.93V445.177H148.266L147.576 445.543C147.585 445.112 147.496 444.731 147.308 444.403C147.121 444.074 146.863 443.816 146.534 443.629C146.215 443.441 145.844 443.347 145.422 443.347C144.99 443.347 144.61 443.441 144.281 443.629C143.962 443.816 143.709 444.079 143.521 444.417C143.343 444.746 143.254 445.135 143.254 445.586V445.867C143.254 446.318 143.357 446.716 143.563 447.064C143.77 447.411 144.061 447.678 144.436 447.866C144.812 448.054 145.244 448.148 145.732 448.148C146.154 448.148 146.534 448.082 146.872 447.951C147.21 447.819 147.51 447.613 147.773 447.331L148.716 448.415C148.378 448.809 147.951 449.114 147.435 449.33C146.928 449.537 146.346 449.64 145.689 449.64ZM155.179 441.939C155.78 441.939 156.315 442.057 156.784 442.291C157.263 442.526 157.638 442.887 157.91 443.375C158.182 443.854 158.319 444.473 158.319 445.234V449.542H156.559V445.459C156.559 444.792 156.399 444.295 156.08 443.967C155.77 443.638 155.334 443.474 154.771 443.474C154.358 443.474 153.992 443.558 153.673 443.727C153.354 443.896 153.105 444.15 152.927 444.487C152.758 444.816 152.673 445.234 152.673 445.74V449.542H150.913V442.024H152.589V444.051L152.293 443.432C152.556 442.953 152.936 442.587 153.433 442.333C153.94 442.071 154.522 441.939 155.179 441.939ZM163.381 449.64C162.555 449.64 161.917 449.429 161.466 449.007C161.015 448.575 160.79 447.941 160.79 447.106V440.362H162.55V447.064C162.55 447.42 162.639 447.697 162.818 447.894C163.005 448.091 163.263 448.19 163.592 448.19C163.986 448.19 164.314 448.087 164.577 447.88L165.07 449.133C164.864 449.302 164.61 449.429 164.31 449.513C164.009 449.598 163.7 449.64 163.381 449.64ZM159.551 443.488V442.08H164.563V443.488H159.551Z" fill="white"/>
<path d="M96.6913 375.382C98.5081 373.619 100.905 372.662 103.38 372.713C105.855 372.763 108.215 373.817 109.965 375.652C111.716 377.488 112.72 379.963 112.768 382.559C112.816 385.155 111.904 387.669 110.223 389.574L104.817 395.244C104.456 395.622 103.967 395.834 103.457 395.834C102.947 395.834 102.458 395.622 102.097 395.244L96.6913 389.574C94.8987 387.691 93.8919 385.139 93.8919 382.478C93.8919 379.818 94.8987 377.265 96.6913 375.382ZM103.463 387.145C104.343 387.145 105.204 386.87 105.935 386.357C106.666 385.843 107.236 385.113 107.571 384.259C107.906 383.406 107.992 382.467 107.818 381.562C107.644 380.657 107.217 379.826 106.592 379.176C105.967 378.526 105.172 378.085 104.308 377.91C103.443 377.734 102.549 377.832 101.738 378.19C100.927 378.549 100.235 379.152 99.7512 379.923C99.2673 380.694 99.0127 381.599 99.0198 382.522C99.0198 383.133 99.1348 383.739 99.3582 384.303C99.5817 384.868 99.9091 385.381 100.322 385.813C100.735 386.245 101.225 386.587 101.764 386.819C102.303 387.052 102.88 387.171 103.463 387.17V387.145Z" fill="#263238"/>
<path opacity="0.7" d="M96.6913 375.382C98.5081 373.619 100.905 372.662 103.38 372.713C105.855 372.763 108.215 373.817 109.965 375.652C111.716 377.488 112.72 379.963 112.768 382.559C112.816 385.155 111.904 387.669 110.223 389.574L104.817 395.244C104.456 395.622 103.967 395.834 103.457 395.834C102.947 395.834 102.458 395.622 102.097 395.244L96.6913 389.574C94.8987 387.691 93.8919 385.139 93.8919 382.478C93.8919 379.818 94.8987 377.265 96.6913 375.382ZM103.463 387.145C104.343 387.145 105.204 386.87 105.935 386.357C106.666 385.843 107.236 385.113 107.571 384.259C107.906 383.406 107.992 382.467 107.818 381.562C107.644 380.657 107.217 379.826 106.592 379.176C105.967 378.526 105.172 378.085 104.308 377.91C103.443 377.734 102.549 377.832 101.738 378.19C100.927 378.549 100.235 379.152 99.7512 379.923C99.2673 380.694 99.0127 381.599 99.0198 382.522C99.0198 383.133 99.1348 383.739 99.3582 384.303C99.5817 384.868 99.9091 385.381 100.322 385.813C100.735 386.245 101.225 386.587 101.764 386.819C102.303 387.052 102.88 387.171 103.463 387.17V387.145Z" fill="white"/>
<path d="M88.1496 315.961L82.2096 315.275L78.7882 316.746C78.4347 316.9 78.12 317.137 77.8686 317.44C77.6172 317.742 77.4359 318.102 77.3388 318.49C77.2303 318.946 77.2941 319.428 77.517 319.836V319.948C77.7041 320.285 77.9824 320.556 78.3166 320.727C78.6508 320.897 79.0258 320.96 79.394 320.907L82.8274 320.409C83.1592 320.358 83.4737 320.221 83.7421 320.01L87.6982 316.87L88.1496 315.961Z" fill="white"/>
<path d="M466.008 244.305C467.231 229.766 456.984 216.94 443.122 215.658C429.26 214.376 417.031 225.123 415.808 239.662C414.586 254.201 424.832 267.027 438.695 268.309C452.557 269.591 464.786 258.844 466.008 244.305Z" fill="#407BFF"/>
<path d="M450.822 259.928L449.076 266.482L456.299 270.519L457.178 262.121L450.822 259.928Z" fill="#407BFF"/>
<path d="M471.636 241.051C471.558 241.042 471.487 241.002 471.436 240.939C471.385 240.877 471.359 240.797 471.363 240.715C471.536 236.464 470.711 232.233 468.958 228.396C467.205 224.559 464.58 221.232 461.312 218.71C461.28 218.687 461.253 218.657 461.232 218.622C461.211 218.587 461.197 218.548 461.19 218.508C461.183 218.467 461.184 218.426 461.193 218.386C461.202 218.346 461.218 218.308 461.241 218.274C461.263 218.241 461.292 218.212 461.325 218.19C461.358 218.168 461.395 218.153 461.434 218.146C461.473 218.139 461.512 218.14 461.55 218.149C461.589 218.159 461.625 218.176 461.657 218.2C465.005 220.785 467.696 224.194 469.492 228.127C471.288 232.06 472.135 236.395 471.957 240.752C471.955 240.794 471.946 240.835 471.929 240.873C471.911 240.912 471.887 240.946 471.857 240.974C471.827 241.001 471.792 241.023 471.754 241.036C471.716 241.049 471.676 241.055 471.636 241.051Z" fill="#407BFF"/>
<path d="M470.543 248.814H470.436C470.399 248.799 470.365 248.776 470.337 248.747C470.308 248.718 470.286 248.683 470.27 248.645C470.255 248.607 470.247 248.565 470.247 248.524C470.247 248.482 470.254 248.441 470.27 248.403C470.737 247.219 470.964 245.946 470.935 244.665C470.935 244.582 470.966 244.503 471.022 244.444C471.078 244.386 471.153 244.353 471.232 244.353C471.271 244.351 471.309 244.358 471.345 244.372C471.381 244.386 471.414 244.408 471.441 244.436C471.469 244.464 471.491 244.498 471.506 244.535C471.521 244.572 471.529 244.612 471.529 244.652C471.557 246.011 471.314 247.36 470.816 248.614C470.795 248.672 470.757 248.722 470.709 248.758C470.66 248.794 470.602 248.813 470.543 248.814Z" fill="#407BFF"/>
<path d="M440.463 253.137L427.775 244.241L430.733 239.593L439.239 245.562L449.824 230.871L454.077 234.236L440.463 253.137Z" fill="white"/>
<path d="M825.826 501.129L238.23 515.582V410.171H831.481L825.826 501.129Z" fill="#263238"/>
<path opacity="0.5" d="M825.826 501.129L238.23 515.582V410.171H831.481L825.826 501.129Z" fill="black"/>
<path d="M215.634 437.221V490.675C215.636 496.25 217.342 501.677 220.499 506.162C223.657 510.646 228.101 513.952 233.181 515.595L237.327 516.916C239.887 517.748 242.559 518.139 245.239 518.074L272.682 517.402C269.76 506.69 269.218 495.419 271.097 484.453C272.975 473.488 277.225 463.12 283.519 454.145C289.812 445.17 297.984 437.827 307.405 432.68C316.826 427.533 327.246 424.719 337.865 424.453C348.485 424.188 359.021 426.478 368.665 431.148C378.309 435.818 386.805 442.744 393.5 451.394C400.194 460.044 404.91 470.188 407.285 481.047C409.66 491.906 409.63 503.192 407.199 514.037L686.379 507.072C685.924 503.654 685.705 500.206 685.726 496.755C685.527 487.024 687.188 477.349 690.61 468.302C694.033 459.254 699.148 451.017 705.654 444.076C712.161 437.135 719.926 431.63 728.493 427.886C737.059 424.143 746.254 422.236 755.534 422.278C764.815 422.321 773.993 424.312 782.529 428.133C791.064 431.955 798.783 437.531 805.231 444.531C811.679 451.532 816.726 459.815 820.073 468.894C823.421 477.972 825.001 487.662 824.722 497.391C824.722 498.811 824.603 500.207 824.603 501.615C824.971 501.453 825.351 501.303 825.719 501.116L835.223 496.643C839.829 494.452 843.736 490.915 846.475 486.456C849.214 481.996 850.669 476.803 850.667 471.499V362.648C850.67 357.624 849.362 352.695 846.884 348.394C844.407 344.094 840.855 340.586 836.613 338.252L765.072 298.666C764.426 298.306 763.894 297.757 763.539 297.086C763.185 296.415 763.023 295.65 763.073 294.885C763.123 294.12 763.383 293.386 763.823 292.772C764.262 292.159 764.861 291.691 765.547 291.427L774.326 288.125C774.767 287.971 775.145 287.664 775.397 287.255C775.649 286.846 775.761 286.359 775.714 285.874C775.667 285.39 775.464 284.936 775.138 284.589C774.813 284.242 774.384 284.021 773.923 283.963C739.827 278.979 607.187 260.788 537.511 269.722C457.083 280.051 380.006 353.204 380.006 353.204C320.76 350.923 265.482 372.554 241.699 383.382C237.901 385.119 234.493 387.671 231.692 390.873C228.891 394.074 226.76 397.855 225.435 401.972L217.297 427.266C216.23 430.467 215.668 433.83 215.634 437.221Z" fill="#407BFF"/>
<path d="M686.51 507.122C686.106 503.912 685.903 500.678 685.904 497.441C685.904 495.783 685.904 494.151 686.058 492.531L635.58 470.838C632.625 469.579 629.438 469.034 626.254 469.244L450.62 481.33C447.749 481.522 444.947 482.332 442.387 483.71L409.017 501.714C408.778 505.873 408.21 510.003 407.318 514.062L686.51 507.122Z" fill="#263238"/>
<path d="M850.869 471.524V468.745L822.357 477.916C824.021 484.269 824.864 490.827 824.864 497.416C824.864 498.836 824.745 500.232 824.745 501.64C825.113 501.478 825.494 501.328 825.862 501.141L835.437 496.668C840.041 494.475 843.945 490.937 846.681 486.478C849.418 482.019 850.872 476.827 850.869 471.524Z" fill="#263238"/>
<path d="M223.736 509.863C226.457 512.498 229.704 514.465 233.24 515.62L237.398 516.941C239.954 517.773 242.622 518.164 245.298 518.099L272.741 517.426C271.75 513.787 271.035 510.07 270.603 506.312L223.736 509.863Z" fill="#263238"/>
<path d="M755.485 417.647C744.702 417.643 734.043 420.044 724.213 424.691C714.383 429.338 705.608 436.125 698.47 444.601C691.332 453.077 685.995 463.049 682.813 473.854C679.63 484.659 678.675 496.05 680.011 507.272L686.664 507.122C686.209 503.704 685.99 500.256 686.011 496.805C685.812 487.074 687.473 477.399 690.895 468.352C694.318 459.304 699.433 451.067 705.94 444.126C712.446 437.185 720.211 431.68 728.778 427.936C737.344 424.193 746.539 422.286 755.819 422.328C765.1 422.371 774.278 424.361 782.814 428.183C791.349 432.005 799.068 437.581 805.516 444.581C811.964 451.581 817.011 459.865 820.358 468.943C823.706 478.022 825.286 487.711 825.007 497.441C825.007 498.861 824.9 500.257 824.9 501.665C825.268 501.503 825.648 501.353 826.016 501.166L831.505 498.55V497.441C831.477 476.3 823.457 456.034 809.204 441.086C794.952 426.137 775.629 417.726 755.473 417.697L755.485 417.647Z" fill="#263238"/>
<path d="M339.614 417.647C327.981 417.631 316.499 420.415 306.053 425.784C295.607 431.153 286.475 438.965 279.36 448.618C272.245 458.271 267.337 469.507 265.014 481.462C262.69 493.417 263.013 505.772 265.958 517.576L272.705 517.426C269.788 506.716 269.249 495.447 271.13 484.484C273.011 473.521 277.262 463.156 283.556 454.184C289.85 445.212 298.021 437.871 307.44 432.726C316.86 427.581 327.278 424.767 337.896 424.502C348.513 424.236 359.048 426.526 368.69 431.194C378.333 435.863 386.828 442.786 393.523 451.434C400.217 460.081 404.934 470.222 407.311 481.078C409.688 491.935 409.662 503.218 407.235 514.062L413.97 513.9C416.315 502.281 416.155 490.26 413.503 478.714C410.851 467.169 405.774 456.39 398.642 447.165C391.51 437.941 382.504 430.504 372.282 425.397C362.059 420.29 350.877 417.642 339.554 417.647H339.614Z" fill="#263238"/>
<path d="M405.797 356.356C404.963 357.119 404.391 358.147 404.169 359.284C403.86 360.549 404.013 361.889 404.598 363.042C405.182 364.194 406.157 365.076 407.33 365.514L436.352 374.049C438.912 374.808 441.59 375.02 444.229 374.672L659.459 346.699C664.855 345.911 669.779 343.046 673.275 338.663L701.502 304.161C702.474 302.978 703.068 301.505 703.201 299.95C703.581 296.025 701.241 292.474 697.95 292.037C646.415 284.873 581.253 278.331 540.112 283.627C486.189 290.53 431.886 333.043 405.797 356.356Z" fill="#407BFF"/>
<path opacity="0.8" d="M406.771 356.356C405.934 357.117 405.358 358.146 405.132 359.284C404.826 360.55 404.982 361.891 405.568 363.043C406.155 364.195 407.13 365.076 408.304 365.514L437.327 374.049C439.886 374.808 442.564 375.02 445.203 374.672L655.61 359.546C660.849 358.848 668.939 348.743 674.618 340.557L702.429 304.161C703.389 302.97 703.981 301.501 704.128 299.95C704.508 296.025 702.156 292.474 698.877 292.037C647.341 284.873 582.179 278.331 541.027 283.627C487.151 290.53 432.86 333.043 406.771 356.356Z" fill="white"/>
<g opacity="0.3">
<path d="M547.359 377.825C547.031 377.701 546.73 377.51 546.472 377.264C546.215 377.018 546.006 376.72 545.858 376.389C545.71 376.058 545.626 375.7 545.61 375.335C545.595 374.969 545.648 374.605 545.767 374.261C546.064 373.385 546.603 372.623 547.317 372.072C548.031 371.521 548.885 371.207 549.771 371.171L575.384 370.037C575.731 370.022 576.078 370.077 576.406 370.199C576.737 370.323 577.041 370.514 577.301 370.762C577.562 371.01 577.773 371.309 577.923 371.642C578.073 371.975 578.159 372.336 578.176 372.704C578.193 373.073 578.14 373.441 578.021 373.788C577.715 374.662 577.17 375.421 576.453 375.971C575.737 376.521 574.881 376.836 573.994 376.878L548.381 377.987C548.034 378.001 547.687 377.946 547.359 377.825Z" fill="black"/>
</g>
<path d="M737.843 300.859C737.304 301.361 736.864 301.969 736.549 302.649C736.235 303.329 736.051 304.068 736.009 304.823C735.967 305.578 736.068 306.334 736.305 307.048C736.542 307.761 736.911 308.419 737.392 308.983L743.462 315.911C744.161 316.689 745.048 317.253 746.028 317.543L820.433 339.186C821.728 339.547 823.061 339.735 824.401 339.747H839.179C838.416 339.2 837.622 338.701 836.803 338.252L765.072 298.616C764.642 298.394 764.257 298.084 763.941 297.705C763.625 297.326 763.384 296.886 763.23 296.409C763.077 295.932 763.015 295.428 763.047 294.926C763.08 294.424 763.207 293.933 763.421 293.483L740.124 299.601C739.28 299.827 738.499 300.258 737.843 300.859Z" fill="#407BFF"/>
<path d="M274.511 393.562L249.124 390.658L234.547 396.888C233.031 397.54 231.682 398.556 230.608 399.854C229.535 401.153 228.768 402.698 228.369 404.364C227.891 406.312 228.16 408.379 229.118 410.121L229.379 410.582C230.174 412.024 231.359 413.185 232.785 413.917C234.211 414.649 235.813 414.92 237.386 414.694L252.022 412.576C253.45 412.364 254.802 411.777 255.955 410.869L272.848 397.474L274.511 393.562Z" fill="white"/>
<path d="M379.982 353.216L384.021 354.462C385.568 354.922 387.199 354.978 388.77 354.624C390.342 354.27 391.808 353.517 393.038 352.431C416.572 331.548 457.475 299.526 501.621 284.599C501.816 284.528 501.98 284.387 502.084 284.2C502.139 284.101 502.174 283.991 502.187 283.877C502.2 283.763 502.192 283.648 502.162 283.537C502.132 283.427 502.081 283.324 502.013 283.235C501.945 283.145 501.86 283.071 501.764 283.016L496.275 280.063C432.598 303.189 379.982 353.216 379.982 353.216Z" fill="#407BFF"/>
<path opacity="0.8" d="M379.982 353.216L384.021 354.462C385.568 354.922 387.199 354.978 388.77 354.624C390.342 354.27 391.808 353.517 393.038 352.431C416.572 331.548 457.475 299.526 501.621 284.599C501.816 284.528 501.98 284.387 502.084 284.2C502.139 284.101 502.174 283.991 502.187 283.877C502.2 283.763 502.192 283.648 502.162 283.537C502.132 283.427 502.081 283.324 502.013 283.235C501.945 283.145 501.86 283.071 501.764 283.016L496.275 280.063C432.598 303.189 379.982 353.216 379.982 353.216Z" fill="white"/>
<path opacity="0.2" d="M621.253 381.401L407.294 397.474L411.321 425.148C412.557 433.619 415.554 441.701 420.101 448.822L437.98 476.857L620.599 450.952L706.931 381.401H621.253Z" fill="white"/>
<path d="M755.414 558.158C787.406 558.158 813.34 530.957 813.34 497.403C813.34 463.849 787.406 436.648 755.414 436.648C723.421 436.648 697.487 463.849 697.487 497.403C697.487 530.957 723.421 558.158 755.414 558.158Z" fill="#263238"/>
<path opacity="0.4" d="M755.414 534.646C775.025 534.646 790.923 517.972 790.923 497.403C790.923 476.835 775.025 460.16 755.414 460.16C735.802 460.16 719.904 476.835 719.904 497.403C719.904 517.972 735.802 534.646 755.414 534.646Z" fill="white"/>
<g opacity="0.3">
<path d="M755.425 463.911H755.414C753.845 463.911 752.574 465.244 752.574 466.889V485.977C752.574 487.622 753.845 488.955 755.414 488.955H755.425C756.994 488.955 758.265 487.622 758.265 485.977V466.889C758.265 465.244 756.994 463.911 755.425 463.911Z" fill="white"/>
</g>
<g opacity="0.3">
<path d="M755.425 505.876H755.414C753.845 505.876 752.574 507.209 752.574 508.854V527.943C752.574 529.587 753.845 530.921 755.414 530.921H755.425C756.994 530.921 758.265 529.587 758.265 527.943V508.854C758.265 507.209 756.994 505.876 755.425 505.876Z" fill="white"/>
</g>
<g opacity="0.3">
<path d="M766.26 494.288C765.936 494.482 765.578 494.606 765.208 494.654C764.837 494.702 764.462 494.674 764.102 494.569C763.742 494.465 763.406 494.288 763.111 494.047C762.817 493.806 762.571 493.507 762.387 493.167C762.013 492.483 761.913 491.671 762.109 490.909C762.305 490.148 762.781 489.499 763.433 489.105L779.185 479.511C779.51 479.314 779.868 479.187 780.24 479.135C780.611 479.084 780.989 479.11 781.35 479.212C781.712 479.314 782.052 479.489 782.349 479.729C782.646 479.968 782.895 480.267 783.082 480.607C783.453 481.292 783.551 482.103 783.356 482.864C783.16 483.624 782.686 484.273 782.037 484.669L766.26 494.263V494.288Z" fill="white"/>
</g>
<g opacity="0.3">
<path d="M731.618 515.184C730.966 515.576 730.191 515.681 729.465 515.475C728.739 515.27 728.121 514.771 727.745 514.087C727.56 513.749 727.44 513.376 727.393 512.99C727.345 512.604 727.371 512.211 727.468 511.835C727.565 511.459 727.732 511.107 727.959 510.798C728.186 510.49 728.468 510.231 728.791 510.038L744.543 500.443C745.196 500.049 745.971 499.942 746.699 500.145C747.427 500.348 748.048 500.845 748.428 501.527C748.805 502.214 748.907 503.029 748.714 503.794C748.52 504.559 748.046 505.214 747.395 505.614L731.63 515.209L731.618 515.184Z" fill="white"/>
</g>
<g opacity="0.3">
<path d="M779.197 515.258L763.444 505.664C763.12 505.468 762.835 505.207 762.607 504.895C762.379 504.583 762.211 504.228 762.114 503.848C762.017 503.468 761.992 503.073 762.041 502.683C762.09 502.293 762.212 501.918 762.399 501.577C762.781 500.894 763.406 500.397 764.136 500.196C764.867 499.995 765.643 500.107 766.296 500.506L782.049 510.1C782.698 510.496 783.172 511.145 783.368 511.905C783.563 512.666 783.465 513.477 783.094 514.162C782.907 514.502 782.658 514.801 782.361 515.04C782.063 515.28 781.724 515.455 781.362 515.557C781 515.659 780.623 515.685 780.252 515.634C779.88 515.582 779.522 515.455 779.197 515.258Z" fill="white"/>
</g>
<g opacity="0.3">
<path d="M748.44 493.179C748.063 493.861 747.443 494.357 746.717 494.56C745.991 494.764 745.218 494.657 744.567 494.263L728.79 484.694C728.141 484.298 727.667 483.648 727.474 482.887C727.28 482.126 727.382 481.315 727.757 480.632C728.134 479.951 728.754 479.454 729.48 479.251C730.206 479.048 730.979 479.155 731.63 479.548L747.395 489.142C748.044 489.538 748.518 490.188 748.711 490.949C748.905 491.711 748.803 492.521 748.428 493.204L748.44 493.179Z" fill="white"/>
</g>
<path d="M750.65 497.391C750.65 496.069 751.15 494.801 752.041 493.867C752.933 492.932 754.141 492.407 755.402 492.407C756.341 492.407 757.26 492.699 758.042 493.247C758.823 493.794 759.432 494.573 759.792 495.483C760.152 496.394 760.246 497.396 760.062 498.363C759.879 499.33 759.426 500.218 758.762 500.915C758.097 501.612 757.251 502.087 756.329 502.279C755.407 502.471 754.451 502.373 753.583 501.995C752.715 501.618 751.973 500.979 751.45 500.16C750.928 499.34 750.65 498.376 750.65 497.391Z" fill="#263238"/>
<path d="M339.614 558.171C371.606 558.171 397.54 530.97 397.54 497.416C397.54 463.862 371.606 436.661 339.614 436.661C307.621 436.661 281.687 463.862 281.687 497.416C281.687 530.97 307.621 558.171 339.614 558.171Z" fill="#263238"/>
<path opacity="0.4" d="M339.614 534.659C359.225 534.659 375.123 517.984 375.123 497.416C375.123 476.847 359.225 460.173 339.614 460.173C320.002 460.173 304.104 476.847 304.104 497.416C304.104 517.984 320.002 534.659 339.614 534.659Z" fill="white"/>
<g opacity="0.3">
<path d="M339.614 463.911H339.602C338.034 463.911 336.762 465.244 336.762 466.889V485.977C336.762 487.622 338.034 488.955 339.602 488.955H339.614C341.182 488.955 342.453 487.622 342.453 485.977V466.889C342.453 465.244 341.182 463.911 339.614 463.911Z" fill="white"/>
</g>
<g opacity="0.3">
<path d="M339.614 505.876H339.602C338.034 505.876 336.762 507.209 336.762 508.854V527.943C336.762 529.587 338.034 530.921 339.602 530.921H339.614C341.182 530.921 342.453 529.587 342.453 527.943V508.854C342.453 507.209 341.182 505.876 339.614 505.876Z" fill="white"/>
</g>
<g opacity="0.3">
<path d="M350.46 494.288C350.138 494.481 349.783 494.604 349.416 494.652C349.048 494.7 348.675 494.671 348.319 494.567C347.962 494.462 347.628 494.285 347.337 494.045C347.046 493.804 346.803 493.506 346.623 493.167C346.433 492.83 346.309 492.458 346.258 492.071C346.207 491.684 346.23 491.29 346.325 490.912C346.42 490.534 346.585 490.18 346.812 489.87C347.038 489.56 347.321 489.3 347.644 489.105L363.409 479.511C363.732 479.315 364.088 479.188 364.458 479.137C364.828 479.086 365.203 479.112 365.563 479.214C365.923 479.316 366.26 479.491 366.555 479.73C366.85 479.97 367.097 480.267 367.282 480.607C367.469 480.946 367.59 481.319 367.639 481.707C367.687 482.095 367.662 482.489 367.565 482.866C367.468 483.244 367.301 483.597 367.073 483.907C366.845 484.216 366.56 484.475 366.237 484.669L350.46 494.263V494.288Z" fill="white"/>
</g>
<g opacity="0.3">
<path d="M311.933 514.087C311.748 513.749 311.628 513.376 311.581 512.99C311.533 512.604 311.559 512.211 311.656 511.835C311.753 511.459 311.92 511.107 312.147 510.798C312.374 510.49 312.656 510.231 312.979 510.038L328.731 500.443C329.384 500.044 330.161 499.933 330.891 500.134C331.622 500.335 332.246 500.832 332.628 501.515C332.816 501.855 332.937 502.231 332.986 502.621C333.035 503.01 333.01 503.406 332.913 503.786C332.816 504.165 332.648 504.521 332.42 504.833C332.192 505.144 331.907 505.406 331.583 505.602L315.83 515.196C315.172 515.589 314.393 515.692 313.663 515.485C312.933 515.277 312.311 514.774 311.933 514.087Z" fill="white"/>
</g>
<g opacity="0.3">
<path d="M367.27 514.174C366.893 514.856 366.273 515.352 365.547 515.556C364.821 515.759 364.048 515.652 363.397 515.258L347.633 505.664C346.981 505.264 346.507 504.609 346.316 503.842C346.124 503.076 346.23 502.262 346.611 501.577C346.797 501.238 347.044 500.942 347.34 500.704C347.636 500.467 347.974 500.293 348.334 500.193C348.694 500.094 349.07 500.07 349.439 500.123C349.808 500.177 350.163 500.307 350.484 500.506L366.237 510.1C366.886 510.496 367.36 511.146 367.554 511.907C367.747 512.668 367.645 513.479 367.27 514.162V514.174Z" fill="white"/>
</g>
<g opacity="0.3">
<path d="M332.64 493.204C332.259 493.885 331.635 494.379 330.907 494.577C330.178 494.776 329.404 494.663 328.755 494.263L312.979 484.694C312.655 484.5 312.371 484.241 312.143 483.932C311.915 483.622 311.747 483.269 311.65 482.891C311.553 482.514 311.528 482.12 311.576 481.732C311.625 481.344 311.746 480.97 311.933 480.632C312.313 479.947 312.936 479.447 313.666 479.242C314.396 479.036 315.174 479.142 315.83 479.536L331.583 489.13C332.232 489.526 332.706 490.175 332.9 490.937C333.093 491.698 332.991 492.509 332.616 493.192L332.64 493.204Z" fill="white"/>
</g>
<path d="M339.614 492.407C340.553 492.407 341.472 492.699 342.254 493.247C343.035 493.794 343.644 494.573 344.004 495.483C344.363 496.394 344.458 497.396 344.274 498.363C344.091 499.33 343.638 500.218 342.974 500.915C342.309 501.612 341.462 502.087 340.541 502.279C339.619 502.471 338.663 502.373 337.795 501.995C336.927 501.618 336.185 500.979 335.662 500.16C335.14 499.34 334.862 498.376 334.862 497.391C334.862 496.069 335.362 494.801 336.253 493.867C337.145 492.932 338.353 492.407 339.614 492.407Z" fill="#263238"/>
<path opacity="0.3" d="M844.799 382.809C845.721 382.5 846.488 381.82 846.934 380.918C847.379 380.017 847.466 378.967 847.175 377.999C846.509 365.215 843.919 353.827 836.483 345.989C836.241 345.154 835.735 344.431 835.048 343.939C834.361 343.447 833.534 343.217 832.705 343.285L788.535 347.634C787.859 347.7 787.214 347.962 786.672 348.391C786.13 348.82 785.713 349.398 785.466 350.061C785.22 350.724 785.154 351.446 785.276 352.147C785.399 352.847 785.704 353.497 786.159 354.026L798.799 368.318C799.239 368.814 799.797 369.18 800.415 369.377L842.672 382.809C843.366 383.024 844.105 383.024 844.799 382.809Z" fill="black"/>
<path d="M404.169 359.222C403.86 360.487 404.013 361.827 404.598 362.979C405.182 364.132 406.157 365.014 407.33 365.452L436.364 373.987C438.984 374.827 441.694 375.313 444.431 375.432L453.567 374.797L444.942 325.954C425.043 339.66 423.676 340.295 405.797 356.256C404.957 357.029 404.384 358.072 404.169 359.222Z" fill="#263238"/>
<path d="M593.252 282.057L574.992 365.452L598.847 363.645L609.765 282.842C604.181 282.493 598.677 282.231 593.252 282.057Z" fill="#263238"/>
<path d="M668.939 348.058L702.441 304.161C703.429 302.96 704.035 301.466 704.175 299.887C704.543 295.962 702.191 292.411 698.912 292C692.046 291.016 684.739 290.081 677.433 289.159" fill="#263238"/>
<path d="M430.567 367.707C429.187 367.725 427.818 367.458 426.537 366.92C425.256 366.382 424.089 365.585 423.102 364.573C422.116 363.561 421.329 362.356 420.788 361.025C420.246 359.694 419.96 358.264 419.946 356.817C419.919 354.306 420.709 351.861 422.187 349.885C423.664 347.91 425.741 346.522 428.072 345.952L442.067 342.513L445.631 367.109L430.852 367.695L430.567 367.707Z" fill="#407BFF"/>
<path opacity="0.3" d="M441.52 367.271L445.619 367.109L442.067 342.513L438.063 343.51L441.52 367.271Z" fill="black"/>
<path opacity="0.6" d="M580.16 472.732H580.1C580.062 472.724 580.026 472.707 579.994 472.683C579.962 472.66 579.934 472.63 579.913 472.595C579.892 472.56 579.878 472.521 579.871 472.481C579.865 472.44 579.866 472.399 579.875 472.359C580.029 471.599 595.319 396.353 597.279 386.061C598.027 382.136 598.301 374.597 598.075 363.633C598.075 363.55 598.106 363.471 598.162 363.412C598.218 363.354 598.293 363.321 598.372 363.321C598.449 363.321 598.522 363.352 598.578 363.408C598.633 363.464 598.666 363.54 598.669 363.62C598.895 374.597 598.669 382.173 597.861 386.148C595.901 396.415 580.611 471.698 580.457 472.458C580.446 472.533 580.41 472.602 580.356 472.652C580.301 472.702 580.232 472.73 580.16 472.732Z" fill="black"/>
<path opacity="0.6" d="M442.364 484.021C442.315 484.021 442.267 484.008 442.223 483.984C442.18 483.96 442.142 483.926 442.114 483.884C441.924 483.573 422.191 452.946 415.408 440.137C408.434 426.954 403.932 363.77 403.742 361.078C403.738 360.998 403.765 360.919 403.816 360.859C403.867 360.798 403.938 360.761 404.015 360.754C404.054 360.749 404.094 360.753 404.132 360.764C404.17 360.776 404.206 360.796 404.236 360.823C404.266 360.85 404.29 360.884 404.308 360.921C404.325 360.959 404.334 360.999 404.336 361.041C404.336 361.689 409.016 426.767 415.931 439.838C422.69 452.622 442.411 483.236 442.613 483.535C442.655 483.605 442.67 483.69 442.654 483.771C442.639 483.852 442.594 483.924 442.53 483.971C442.481 484.006 442.423 484.024 442.364 484.021Z" fill="black"/>
<path opacity="0.6" d="M249.124 390.97C249.066 390.97 249.009 390.953 248.96 390.919C248.912 390.886 248.874 390.839 248.85 390.783C248.822 390.705 248.824 390.619 248.855 390.543C248.886 390.466 248.944 390.405 249.017 390.372C264.152 383.88 312.658 371.682 324.039 369.726C338.378 367.321 387.371 354.637 387.858 354.512C387.937 354.493 388.02 354.507 388.088 354.552C388.157 354.596 388.207 354.667 388.227 354.749C388.235 354.789 388.236 354.83 388.23 354.871C388.223 354.911 388.209 354.95 388.188 354.985C388.167 355.02 388.14 355.05 388.107 355.073C388.075 355.097 388.039 355.114 388.001 355.122C387.514 355.247 338.497 367.931 324.134 370.349C313.086 372.205 263.997 384.615 249.29 390.957L249.124 390.97Z" fill="black"/>
<path opacity="0.8" d="M737.843 300.859C737.304 301.361 736.864 301.969 736.549 302.649C736.235 303.329 736.051 304.068 736.009 304.823C735.967 305.578 736.068 306.334 736.305 307.048C736.542 307.761 736.911 308.419 737.392 308.983L743.462 315.911C744.161 316.689 745.048 317.253 746.028 317.543L820.433 339.186C821.728 339.547 823.061 339.735 824.401 339.747H839.179C838.416 339.2 837.622 338.701 836.803 338.252L765.072 298.616C764.642 298.394 764.257 298.084 763.941 297.705C763.625 297.326 763.384 296.886 763.23 296.409C763.077 295.932 763.015 295.428 763.047 294.926C763.08 294.424 763.207 293.933 763.421 293.483L740.124 299.601C739.28 299.827 738.499 300.258 737.843 300.859Z" fill="white"/>
<path d="M491.416 333.928C491.416 333.928 500.302 366.723 504.627 367.882C512.444 370 538.889 365.24 538.366 364.318L536.192 352.768C536.192 352.768 509.201 350.737 508.642 350.961L500.077 330.402L491.416 333.928Z" fill="#E1715B"/>
<path d="M500.148 336.171C500.148 336.171 502.845 333.542 502.916 330.34C502.987 327.137 503.855 324.62 503.76 322.241C503.665 319.861 501.764 322.39 501.015 323.948C500.267 325.505 499.4 327.262 498.366 326.44C497.332 325.617 492.901 315.226 491.357 314.341C489.812 313.456 490.038 315.35 490.038 315.35C490.038 315.35 488.85 312.858 487.828 313.057C487.555 313.057 486.985 313.705 487.341 314.926C488.137 317.68 490.086 323.374 490.086 323.374C489.979 323.05 487.092 316.197 486.522 315.238C485.797 313.992 484.835 313.768 484.146 314.241C483.183 314.902 486.522 323.511 486.367 323.985C486.367 323.985 484.633 319.001 483.148 318.714C481.663 318.428 482.601 321.705 483.932 324.384C485.12 326.876 486.949 331.997 488.422 334.352C490.24 337.267 492.093 338.8 495.17 338.301C496.977 338.055 498.693 337.321 500.148 336.171Z" fill="#E1715B"/>
<path opacity="0.3" d="M492.592 322.029C492.561 322.031 492.531 322.022 492.505 322.004C492.479 321.986 492.46 321.96 492.45 321.929C491.761 319.823 490.965 317.755 490.074 315.699C490.057 315.661 490.055 315.618 490.069 315.578C490.082 315.539 490.109 315.506 490.145 315.487C490.182 315.473 490.222 315.472 490.259 315.486C490.296 315.5 490.327 315.527 490.347 315.562C491.202 317.58 491.998 319.674 492.723 321.792C492.735 321.83 492.733 321.872 492.718 321.908C492.703 321.945 492.675 321.975 492.64 321.991L492.592 322.029Z" fill="black"/>
<path opacity="0.3" d="M486.985 326.153C486.962 326.152 486.94 326.146 486.919 326.135C486.899 326.124 486.881 326.109 486.866 326.091C486.853 326.077 486.842 326.06 486.835 326.042C486.828 326.024 486.824 326.004 486.824 325.985C486.824 325.965 486.828 325.946 486.835 325.927C486.842 325.909 486.853 325.893 486.866 325.879C489.018 324.025 491.641 322.873 494.41 322.564C494.449 322.561 494.488 322.573 494.519 322.598C494.55 322.624 494.57 322.661 494.576 322.702C494.58 322.722 494.579 322.743 494.574 322.763C494.569 322.784 494.56 322.803 494.548 322.819C494.536 322.836 494.52 322.849 494.502 322.859C494.485 322.869 494.465 322.875 494.446 322.876C491.734 323.178 489.166 324.304 487.056 326.116C487.037 326.136 487.012 326.149 486.985 326.153Z" fill="black"/>
<path opacity="0.3" d="M495.824 334.053C495.795 334.052 495.767 334.042 495.744 334.024C495.72 334.006 495.703 333.981 495.693 333.953C495.251 332.827 495.201 331.573 495.55 330.412C495.9 329.25 496.627 328.254 497.606 327.598C497.619 327.584 497.635 327.573 497.652 327.566C497.669 327.558 497.688 327.554 497.707 327.554C497.725 327.554 497.744 327.558 497.761 327.566C497.779 327.573 497.794 327.584 497.808 327.598C497.833 327.63 497.847 327.669 497.847 327.71C497.847 327.751 497.833 327.791 497.808 327.823C496.892 328.444 496.209 329.377 495.871 330.464C495.547 331.56 495.593 332.739 496.002 333.803C496.012 333.842 496.009 333.882 495.994 333.918C495.979 333.955 495.952 333.984 495.919 334.003L495.824 334.053Z" fill="black"/>
<path d="M561.104 323.001C561.104 323.001 571 314.279 570.608 311.313C570.216 308.348 568.589 309.282 568.589 309.282C568.589 309.282 572.022 302.217 568.648 300.996C565.274 299.775 565.084 300.996 565.084 300.996C565.084 300.996 566.427 295.227 563.742 293.52C561.71 292.187 560.843 294.841 560.843 294.841C560.843 294.841 556.958 288.511 552.313 288.611C550.02 288.798 548.88 290.343 549.212 292.199C549.207 292.282 549.207 292.366 549.212 292.449C549.212 292.449 539.827 288.15 535.467 290.854C531.107 293.558 536.798 296.486 536.798 296.486C536.798 296.486 527.65 295.489 525.868 299.352C524.443 302.417 528.506 304.473 528.506 304.473C527.527 304.863 526.622 305.433 525.833 306.155C525.283 306.647 524.89 307.303 524.704 308.036C524.518 308.768 524.549 309.542 524.793 310.256C525.036 310.97 525.481 311.589 526.068 312.031C526.654 312.474 527.355 312.719 528.078 312.734H528.161C528.648 312.734 529.515 312.858 529.872 312.509C529.872 312.509 528.292 315.973 531.678 317.095C535.063 318.216 536.679 314.092 536.679 314.092L561.104 323.001Z" fill="#263238"/>
<path d="M557.992 345.566C557.992 345.566 557.445 340.582 560.831 328.408L560.225 328.097C560.688 326.402 561.187 324.832 561.663 323.474C561.665 323.453 561.665 323.432 561.663 323.412L545.767 333.654C546.135 337.554 544.781 345.067 543.985 348.232L548.096 355.546L557.992 345.566Z" fill="#E1715B"/>
<path opacity="0.2" d="M545.494 339.124L554.63 336.993C553.798 339.971 551.268 343.485 544.924 343.759C545.233 342.233 545.424 340.683 545.494 339.124Z" fill="black"/>
<path d="M534.885 304.884C533.008 308.721 532.331 317.194 538.176 315.437C544.021 313.681 538.164 298.268 534.885 304.884Z" fill="#263238"/>
<path d="M561.805 315.338C560.712 325.879 560.296 331.847 554.95 336.981C546.92 344.693 534.956 339.361 533.02 328.657C531.274 319.013 533.353 303.389 543.439 299.775C545.67 298.97 548.06 298.773 550.384 299.202C552.709 299.631 554.891 300.672 556.726 302.228C558.562 303.783 559.991 305.802 560.879 308.095C561.768 310.388 562.086 312.88 561.805 315.338Z" fill="#E1715B"/>
<path d="M547.24 317.73C547.24 318.802 546.611 319.649 545.934 319.611C545.256 319.574 544.746 318.664 544.746 317.58C544.746 316.496 545.387 315.649 546.052 315.687C546.718 315.724 547.288 316.596 547.24 317.73Z" fill="#263238"/>
<path d="M537.107 317.381C537.107 318.465 536.477 319.312 535.8 319.275C535.123 319.238 534.612 318.316 534.671 317.244C534.731 316.172 535.301 315.313 535.978 315.35C536.655 315.387 537.154 316.297 537.107 317.381Z" fill="#263238"/>
<path d="M540.433 316.945C540.433 316.945 536.869 322.166 535.776 324.296C537.154 325.729 539.649 325.231 539.649 325.231L540.433 316.945Z" fill="#FD504E"/>
<path d="M549.735 311.861C549.653 311.885 549.567 311.885 549.485 311.861C549.403 311.837 549.33 311.789 549.272 311.724C548.853 311.264 548.337 310.911 547.766 310.695C547.195 310.479 546.584 310.405 545.981 310.478C545.861 310.49 545.741 310.455 545.644 310.38C545.547 310.305 545.48 310.194 545.456 310.07C545.433 309.946 545.454 309.817 545.516 309.708C545.577 309.599 545.676 309.519 545.791 309.481C546.556 309.38 547.333 309.471 548.058 309.746C548.782 310.021 549.435 310.473 549.961 311.064C550.049 311.159 550.098 311.286 550.098 311.419C550.098 311.552 550.049 311.679 549.961 311.774C549.897 311.828 549.817 311.859 549.735 311.861Z" fill="#263238"/>
<path d="M532.806 312.497C532.724 312.467 532.651 312.415 532.594 312.346C532.538 312.277 532.499 312.194 532.482 312.104C532.465 312.015 532.471 311.923 532.499 311.836C532.526 311.75 532.575 311.673 532.64 311.612C533.223 311.092 533.918 310.727 534.665 310.55C535.411 310.372 536.188 310.386 536.929 310.59C537.049 310.633 537.149 310.724 537.206 310.842C537.264 310.961 537.275 311.099 537.237 311.226C537.219 311.289 537.188 311.348 537.147 311.399C537.106 311.45 537.056 311.492 537 311.522C536.943 311.552 536.881 311.57 536.818 311.575C536.755 311.58 536.692 311.571 536.632 311.55C536.045 311.395 535.431 311.393 534.843 311.543C534.256 311.693 533.711 311.99 533.258 312.41C533.195 312.462 533.121 312.497 533.042 312.512C532.964 312.528 532.882 312.522 532.806 312.497Z" fill="#263238"/>
<path d="M541.015 328.209C542.643 327.673 545.625 326.527 547.074 324.932C547.262 325.301 547.402 325.695 547.49 326.103C547.657 326.819 547.657 327.567 547.49 328.284C547.133 329.741 545.91 331.324 542.643 332.271H542.571C542.571 332.271 540.801 332.744 539.91 328.533C539.899 328.545 540.338 328.433 541.015 328.209Z" fill="#263238"/>
<path d="M541.015 328.209L541.645 329.343C544.722 328.446 546.777 327.374 547.49 326.103C547.402 325.695 547.262 325.301 547.074 324.932C545.625 326.527 542.643 327.698 541.015 328.209Z" fill="white"/>
<path d="M542.655 332.271C545.922 331.324 547.145 329.779 547.502 328.284C546.263 328.671 545.101 329.287 544.068 330.103C543.395 330.655 542.901 331.412 542.655 332.271Z" fill="#FB504E"/>
<path d="M558.788 323.499C557.872 323.087 557.089 322.408 556.53 321.543C556.159 320.654 556.044 319.671 556.198 318.714C556.278 317.71 556.413 316.712 556.602 315.724C555.711 316.197 554.618 315.45 554.131 314.478C553.514 313.033 553.312 311.431 553.549 309.868C552.978 310.007 552.383 309.984 551.823 309.803C551.264 309.621 550.76 309.287 550.365 308.834C549.993 308.357 549.79 307.761 549.79 307.145C549.79 306.53 549.993 305.933 550.365 305.457C546.641 305.978 542.856 305.733 539.221 304.734C539.471 305.22 539.221 305.806 538.853 306.242C537.538 308.026 535.644 309.241 533.531 309.656C533.222 309.718 532.842 309.731 532.664 309.457C532.592 309.297 532.567 309.12 532.592 308.946C532.696 307.875 533.001 306.836 533.488 305.889C533.975 304.942 534.636 304.105 535.432 303.426C537.027 302.081 538.831 301.036 540.766 300.336C543.914 298.99 547.239 298.15 550.626 297.844C554.029 297.549 557.448 298.171 560.558 299.651C561.241 299.952 561.854 300.407 562.352 300.984C562.773 301.583 563.076 302.265 563.243 302.99C564.49 307.301 564.965 311.817 564.645 316.31" fill="#263238"/>
<path d="M565.393 324.346C564.953 325.579 564.284 326.708 563.426 327.668C562.567 328.628 561.536 329.401 560.391 329.941C557.315 331.361 555.271 328.583 555.711 325.268C556.103 322.278 558.17 317.942 561.461 317.929C564.751 317.917 566.462 321.281 565.393 324.346Z" fill="#E1715B"/>
<path opacity="0.2" d="M558.479 324.558C558.44 324.552 558.402 324.538 558.368 324.516C558.334 324.495 558.305 324.466 558.281 324.433C558.258 324.399 558.242 324.361 558.233 324.32C558.224 324.28 558.223 324.238 558.229 324.197C558.38 323.238 558.764 322.336 559.346 321.58C559.829 320.902 560.522 320.422 561.306 320.222C561.722 320.13 562.154 320.168 562.549 320.332C562.945 320.496 563.285 320.778 563.528 321.144C563.566 321.216 563.577 321.301 563.559 321.381C563.542 321.461 563.497 321.532 563.433 321.58C563.363 321.622 563.281 321.633 563.203 321.612C563.126 321.591 563.059 321.54 563.017 321.468C562.839 321.211 562.594 321.014 562.311 320.902C562.029 320.789 561.721 320.765 561.425 320.833C560.778 321.004 560.207 321.405 559.809 321.966C559.296 322.642 558.957 323.444 558.823 324.296C558.818 324.338 558.804 324.377 558.783 324.413C558.763 324.448 558.736 324.479 558.704 324.503C558.672 324.528 558.635 324.545 558.596 324.555C558.558 324.564 558.518 324.565 558.479 324.558Z" fill="black"/>
<path d="M543.237 362.773C543.237 362.773 513.691 371.831 502.964 372.23C492.236 372.629 468.512 367.371 468.512 367.371L469.854 355.932L504.71 357.801L542.607 344.531L543.237 362.773Z" fill="#E1715B"/>
<path d="M532.675 369.763L538.485 344.581L553.24 341.878C553.893 341.778 565.868 340.744 569.468 354.537L570.264 365.489L532.675 369.763Z" fill="#263238"/>
<path d="M546.575 367.246C545.755 367.246 522.815 371.644 522.815 371.644L518.063 352.032C524.743 349.14 531.573 346.644 538.52 344.556C549.45 341.454 559.691 340.494 562.043 345.802C566.474 355.995 546.575 367.246 546.575 367.246Z" fill="#263238"/>
<path opacity="0.3" d="M498.96 357.677L504.698 357.988L519.607 352.63C519.607 352.63 522.696 351.235 521.912 351.521C521.128 351.808 514.95 351.123 514.535 351.198C514.119 351.272 498.96 357.677 498.96 357.677Z" fill="black"/>
<path d="M458.39 350.737C457.713 351.16 449.812 359.72 449.812 359.72L451.357 370.336L461.289 359.583L458.39 350.737Z" fill="#263238"/>
<path d="M470.282 372.878C469.438 373.311 468.466 373.377 467.576 373.062C466.686 372.747 465.951 372.076 465.53 371.196L449.801 337.666C449.388 336.781 449.325 335.761 449.625 334.828C449.925 333.895 450.565 333.124 451.404 332.682C452.248 332.249 453.22 332.183 454.11 332.498C455 332.813 455.735 333.484 456.156 334.364L471.921 367.857C472.13 368.299 472.253 368.78 472.283 369.272C472.314 369.765 472.251 370.259 472.099 370.725C471.946 371.192 471.707 371.623 471.395 371.992C471.084 372.362 470.705 372.663 470.282 372.878Z" fill="#263238"/>
<path d="M481.627 356.854L468.654 355.023L464.912 350.263C464.912 350.263 458.319 349.64 456.905 350.874C455.491 352.107 454.065 356.032 454.065 356.032C454.065 356.032 452.343 359.259 455.253 360.941C455.253 360.941 453.388 363.807 456.715 365.826C456.715 365.826 454.267 367.283 457.772 368.791C459.12 369.355 460.562 369.63 462.012 369.6C463.463 369.57 464.893 369.235 466.219 368.617C468.161 368.119 470.168 367.963 472.159 368.156L483.956 370.336L481.627 356.854Z" fill="#E1715B"/>
</svg>
